<?xml version="1.0" encoding="utf-8"?>
<!-- Generator: Adobe Illustrator 23.0.3, SVG Export Plug-In . SVG Version: 6.00 Build 0)  -->
<svg version="1.1" id="Layer_1" xmlns="http://www.w3.org/2000/svg" xmlns:xlink="http://www.w3.org/1999/xlink" x="0px" y="0px"
	 viewBox="0 0 256 256" style="enable-background:new 0 0 256 256;" xml:space="preserve">
<style type="text/css">
	.st0{fill:#4A555F;}
	.st1{fill:#DFDFDF;}
	.st2{fill:#FFFFFF;}
	.st3{fill:#FFD552;}
	.st4{fill:#8FCAB0;}
	.st5{fill:#E280A3;}
</style>
<g>
	<g>
		<g>
			<path class="st0" d="M236.2,210.1H19.8c-10.7,0-19.4-8.7-19.4-19.4V19.4C0.4,8.7,9.1,0,19.8,0h216.5c10.6,0,19.3,8.6,19.3,19.3
				v171.5C255.6,201.4,246.9,210.1,236.2,210.1z M19.8,3.6C11.1,3.6,4,10.7,4,19.4v171.4c0,8.7,7.1,15.8,15.8,15.8h216.4
				c8.7,0,15.8-7.1,15.8-15.8V19.3c0-8.6-7-15.7-15.7-15.7C236.3,3.6,19.8,3.6,19.8,3.6z M236.9,171.2H20.3V22.1h216.6L236.9,171.2
				L236.9,171.2z M23.9,167.6h209.4V25.7H23.9V167.6z"/>
		</g>
		<path class="st1" d="M19.8,7.8C13.4,7.8,8.2,13,8.2,19.4v171.4c0,6.4,5.2,11.6,11.6,11.6h216.4c6.4,0,11.6-5.2,11.6-11.6V17.9l0,0
			c0-5.6-4.5-10.1-10.1-10.1C237.7,7.8,19.8,7.8,19.8,7.8z M241.1,175.4h-225V17.9h225V175.4z"/>
		<g>
			<path class="st0" d="M169.2,240.3h-80l14.1-33.8h51.9L169.2,240.3z M94.6,236.7h69.2l-11.1-26.6h-47.1L94.6,236.7z"/>
		</g>
		<polygon class="st1" points="100.9,232.5 108.5,214.3 150,214.3 157.5,232.5 		"/>
		<g>
			<path class="st0" d="M201.8,256H56.7v-19.3h145.1V256z M60.3,252.4h137.9v-12.1H60.3V252.4z"/>
		</g>
		<rect x="64.5" y="244.5" class="st1" width="129.5" height="3.7"/>
		<g>
			<rect x="8.9" y="252.4" class="st0" width="240.7" height="3.6"/>
		</g>
		<circle class="st2" cx="129.4" cy="189.1" r="9.5"/>
		<g>
			<path class="st0" d="M129.4,200.4c-6.2,0-11.3-5.1-11.3-11.3s5.1-11.3,11.3-11.3c6.2,0,11.3,5.1,11.3,11.3
				C140.7,195.3,135.6,200.4,129.4,200.4z M129.4,181.4c-4.2,0-7.7,3.4-7.7,7.7c0,4.2,3.4,7.7,7.7,7.7c4.3,0,7.7-3.4,7.7-7.7
				C137.1,184.9,133.6,181.4,129.4,181.4z"/>
		</g>
	</g>
	<g>
		<g>
			<path class="st0" d="M181.6,109.9c-17.2,0-31.2-14-31.2-31.2v-1.8h30.2l16-25.7l1.5,1c9.2,5.8,14.7,15.7,14.7,26.5
				C212.9,95.9,198.8,109.9,181.6,109.9z M154,80.5c0.9,14.4,12.9,25.8,27.6,25.8c15.2,0,27.6-12.4,27.6-27.6
				c0-9-4.3-17.3-11.5-22.5l-15.1,24.3H154z"/>
		</g>
		<path class="st3" d="M181.6,102.1c-10.8,0-20-7.4-22.6-17.4h26l13.7-22.1c4.1,4.3,6.4,10,6.4,16.1
			C205,91.6,194.5,102.1,181.6,102.1z"/>
		<g>
			<path class="st0" d="M182.6,80.5h-32.2v-1.8c0-17.2,14-31.2,31.2-31.2c5.8,0,11.6,1.6,16.5,4.7l1.5,1L182.6,80.5z M154,76.9h26.6
				l14-22.6c-4-2.1-8.5-3.3-13-3.3C167,51,155,62.5,154,76.9z"/>
		</g>
		<path class="st4" d="M159,72.7c2.7-10,11.8-17.4,22.6-17.4c2.3,0,4.7,0.3,6.9,1l-10.2,16.4H159z"/>
	</g>
	<rect x="154.9" y="128.4" class="st4" width="15.2" height="27.3"/>
	<rect x="198.2" y="141.8" class="st5" width="15.2" height="13.9"/>
	<rect x="177.5" y="121.9" class="st3" width="14.4" height="33.8"/>
	<g>
		<path class="st0" d="M172,157.5h-18.8v-30.9H172V157.5z M156.7,153.9h11.6v-23.7h-11.6V153.9z"/>
	</g>
	<g>
		<path class="st0" d="M215.2,157.5h-18.8V140h18.8V157.5z M200,153.9h11.6v-10.3H200V153.9z"/>
	</g>
	<g>
		<path class="st0" d="M193.7,157.5h-18v-37.4h18V157.5z M179.3,153.9h10.8v-30.2h-10.8V153.9z"/>
	</g>
	<g>
		<rect x="43.6" y="46.5" class="st0" width="3.6" height="110.4"/>
	</g>
	<g>
		<rect x="36.1" y="146" class="st0" width="101.2" height="3.6"/>
	</g>
	<g>
		<path class="st0" d="M80.2,120.4l-2.9-2.1l2.1-2.9l2.9,2.1L80.2,120.4z M84.3,114.5l-2.9-2.1l2.1-2.9l2.9,2.1L84.3,114.5z
			 M88.5,108.6l-2.9-2.1l2.1-2.9l2.9,2.1L88.5,108.6z M92.6,102.7l-2.9-2.1l2.1-2.9l2.9,2.1L92.6,102.7z M96.8,96.8l-2.9-2.1
			l2.1-2.9l2.9,2.1L96.8,96.8z"/>
	</g>
	<g>
		<path class="st0" d="M115.9,81.7l-1.1-3.4l3.4-1.1l1.1,3.4L115.9,81.7z M122.8,79.5l-1.1-3.4l3.4-1.1l1.1,3.4L122.8,79.5z
			 M129.7,77.4l-1.1-3.4l3.4-1.1l1.1,3.4L129.7,77.4z"/>
	</g>
	<g>
		<path class="st0" d="M52,137.3l-2.8-2.3l2.3-2.8l2.8,2.3L52,137.3z M56.5,131.6l-2.8-2.3l2.3-2.8l2.8,2.3L56.5,131.6z M61,126
			l-2.8-2.3l2.3-2.8l2.8,2.3L61,126z"/>
	</g>
	<circle class="st3" cx="68.5" cy="113.5" r="5.7"/>
	<circle class="st3" cx="104.4" cy="83" r="5.7"/>
	<g>
		<path class="st0" d="M68.5,121c-4.2,0-7.5-3.4-7.5-7.5s3.4-7.5,7.5-7.5s7.5,3.4,7.5,7.5S72.7,121,68.5,121z M68.5,109.6
			c-2.2,0-3.9,1.8-3.9,3.9s1.8,3.9,3.9,3.9c2.2,0,3.9-1.8,3.9-3.9S70.7,109.6,68.5,109.6z"/>
	</g>
	<g>
		<path class="st0" d="M104.4,90.6c-4.2,0-7.5-3.4-7.5-7.5s3.4-7.5,7.5-7.5c4.2,0,7.5,3.4,7.5,7.5S108.5,90.6,104.4,90.6z
			 M104.4,79.1c-2.2,0-3.9,1.8-3.9,3.9c0,2.2,1.8,3.9,3.9,3.9c2.2,0,3.9-1.8,3.9-3.9S106.5,79.1,104.4,79.1z"/>
	</g>
	<polygon class="st5" points="61,142 70,129.6 82.3,133.8 111.3,94.3 132.1,87.8 132.1,142 	"/>
	<polygon class="st5" points="73.3,45.4 61.1,57.6 67.8,57.6 67.8,70.8 73.3,70.8 78.8,70.8 78.8,57.6 85.5,57.6 	"/>
	<g>
		<path class="st0" d="M80.6,72.6H66V59.4h-9.2l16.5-16.6l16.5,16.6h-9.2C80.6,59.4,80.6,72.6,80.6,72.6z M69.6,69H77V55.8h4.1
			L73.3,48l-7.8,7.8h4.1C69.6,55.8,69.6,69,69.6,69z"/>
	</g>
</g>
</svg>
