<?xml version="1.0" encoding="utf-8"?>
<!-- Generator: Adobe Illustrator 23.0.3, SVG Export Plug-In . SVG Version: 6.00 Build 0)  -->
<svg version="1.1" id="Layer_1" xmlns="http://www.w3.org/2000/svg" xmlns:xlink="http://www.w3.org/1999/xlink" x="0px" y="0px"
	 viewBox="0 0 222 82" style="enable-background:new 0 0 222 82;" xml:space="preserve">
<style type="text/css">
	.st0{display:none;}
	.st1{display:inline;}
	.st2{fill:#ED1D24;}
	.st3{fill:#FFFFFF;}
	.st4{fill:#ED1D24;stroke:#FFFFFF;stroke-width:0.25;stroke-miterlimit:10;}
	.st5{fill:#0B374D;}
	.st6{fill:#3B4897;}
	.st7{fill:#8FCAB0;}
</style>
<g id="logo-white" class="st0">
	<g id="slogan_1_" class="st1">
		<path class="st2" d="M86.4,74.1c-0.6,0.6-1.3,0.8-2,0.8c-1.9,0-2.9-1.3-2.9-2.8s1-2.9,2.9-2.9c0.7,0,1.5,0.3,1.9,0.8L86,70.4
			c-0.4-0.4-1-0.7-1.6-0.7c-1.5,0-2.3,1.1-2.3,2.3c0,1.3,0.8,2.3,2.3,2.3c0.6,0,1.2-0.2,1.6-0.7L86.4,74.1z"/>
		<path class="st2" d="M90.3,74.4c1.5,0,2.2-1.1,2.2-2.3c0-1.2-0.7-2.3-2.2-2.3s-2.3,1-2.2,2.3C88.1,73.3,88.8,74.4,90.3,74.4
			 M93.1,72.1c0,1.4-0.9,2.8-2.8,2.8s-2.8-1.4-2.8-2.8c0-1.5,1-2.9,2.8-2.9C92.2,69.2,93.1,70.6,93.1,72.1"/>
		<polygon class="st2" points="98.8,73.8 98.7,72 98.7,69.3 99.3,69.3 99.3,74.8 99,74.8 95.4,70.4 95.4,72 95.4,74.8 94.9,74.8 
			94.9,69.3 95.2,69.3 		"/>
		<polygon class="st2" points="105.3,73.8 105.3,72 105.3,69.3 105.8,69.3 105.8,74.8 105.5,74.8 101.9,70.4 102,72 102,74.8 
			101.4,74.8 101.4,69.3 101.8,69.3 		"/>
		<path class="st2" d="M118.1,74.1c-0.6,0.6-1.3,0.8-2,0.8c-1.9,0-2.9-1.3-2.9-2.8s1-2.9,2.9-2.9c0.7,0,1.5,0.3,1.9,0.8l-0.3,0.3
			c-0.4-0.4-1-0.7-1.6-0.7c-1.5,0-2.3,1.1-2.3,2.3c0,1.3,0.8,2.3,2.3,2.3c0.6,0,1.2-0.2,1.6-0.7L118.1,74.1z"/>
		<polygon class="st2" points="111.9,74.8 108,74.8 108,69.3 111.8,69.3 111.8,69.8 108.5,69.8 108.5,71.8 111.7,71.8 111.7,72.3 
			108.5,72.3 108.5,74.3 111.9,74.3 		"/>
		<polygon class="st2" points="121.1,69.8 119.1,69.8 119.1,69.3 123.6,69.3 123.6,69.8 121.6,69.8 121.6,74.8 121.1,74.8 		"/>
		<path class="st2" d="M135,74.4c1.5,0,2.2-1.1,2.2-2.3c0-1.2-0.7-2.3-2.2-2.3s-2.3,1-2.2,2.3C132.8,73.3,133.5,74.4,135,74.4
			 M137.8,72.1c0,1.4-0.9,2.8-2.8,2.8c-1.9,0-2.8-1.4-2.8-2.8c0-1.5,1-2.9,2.8-2.9C136.9,69.2,137.8,70.6,137.8,72.1"/>
		<path class="st2" d="M143.9,69.3v3.4c0,1.5-1,2.2-2.2,2.2s-2.2-0.7-2.2-2.2v-3.4h0.5v3.4c0,1,0.7,1.7,1.6,1.7
			c0.8,0,1.6-0.5,1.6-1.7v-3.4H143.9z"/>
		<path class="st2" d="M146.5,69.8v2.4h1.9c0.9,0,1.3-0.5,1.3-1.2s-0.4-1.2-1.3-1.2C148.4,69.8,146.5,69.8,146.5,69.8z M150.4,74.8
			h-0.7l-1.8-2h-1.4v2H146v-5.5h2.5c1.2,0,1.8,0.8,1.8,1.7c0,0.9-0.5,1.6-1.7,1.7L150.4,74.8z"/>
		<path class="st2" d="M155.3,74.3h1.8c0.6,0,1.5-0.2,1.5-1s-0.8-1.1-1.4-1.1h-1.8v2.1H155.3z M155.3,71.8h1.8
			c0.7,0,1.2-0.3,1.2-0.9c0-0.7-0.6-1-1.3-1h-1.8v1.9H155.3z M157,69.3c1,0,1.8,0.4,1.8,1.5c0,0.5-0.3,1-0.9,1.2
			c0.7,0.2,1,0.8,1,1.3c0,1.1-1,1.5-2,1.5h-2.3v-5.5H157z"/>
		<path class="st2" d="M165.1,69.3v3.4c0,1.5-1,2.2-2.2,2.2s-2.2-0.7-2.2-2.2v-3.4h0.5v3.4c0,1,0.7,1.7,1.6,1.7
			c0.8,0,1.6-0.5,1.6-1.7v-3.4H165.1z"/>
		<path class="st2" d="M170.6,70.5c-0.3-0.5-1-0.7-1.6-0.7c-0.7,0-1.5,0.2-1.5,1c0,0.6,0.7,0.8,1.6,1c1.1,0.2,2.2,0.4,2.2,1.6
			s-1.2,1.6-2.2,1.6c-0.9,0-1.9-0.3-2.3-1.2l0.5-0.3c0.4,0.7,1.1,0.9,1.8,0.9s1.6-0.2,1.6-1.1c0-0.7-0.8-0.9-1.7-1.1
			c-1-0.2-2.1-0.4-2.1-1.5c0-1.2,1.2-1.5,2.1-1.5c0.8,0,1.6,0.2,2,1L170.6,70.5z"/>
		<polygon class="st2" points="129,72.1 130.8,69.3 131.4,69.3 131.4,69.3 129.3,72.6 129.3,74.8 128.7,74.8 128.7,72.6 126.6,69.3 
			126.6,69.3 127.2,69.3 		"/>
		<rect x="173" y="69.3" class="st2" width="0.5" height="5.5"/>
		<polygon class="st2" points="179.5,73.8 179.5,72 179.5,69.3 180,69.3 180,74.8 179.7,74.8 176.2,70.4 176.2,72 176.2,74.8 
			175.6,74.8 175.6,69.3 176,69.3 		"/>
		<path class="st2" d="M191.2,70.5c-0.3-0.5-1-0.7-1.6-0.7c-0.7,0-1.5,0.2-1.5,1c0,0.6,0.7,0.8,1.6,1c1.1,0.2,2.2,0.4,2.2,1.6
			s-1.2,1.6-2.2,1.6c-0.9,0-1.9-0.3-2.3-1.2l0.5-0.3c0.4,0.7,1.1,0.9,1.8,0.9s1.6-0.2,1.6-1.1c0-0.7-0.8-0.9-1.7-1.1
			c-1-0.2-2.1-0.4-2.1-1.5c0-1.2,1.2-1.5,2.1-1.5c0.8,0,1.6,0.2,2,1L191.2,70.5z"/>
		<path class="st2" d="M197,70.5c-0.3-0.5-1-0.7-1.6-0.7c-0.7,0-1.5,0.2-1.5,1c0,0.6,0.7,0.8,1.6,1c1.1,0.2,2.2,0.4,2.2,1.6
			s-1.2,1.6-2.2,1.6c-0.9,0-1.9-0.3-2.3-1.2l0.5-0.3c0.4,0.7,1.1,0.9,1.8,0.9s1.6-0.2,1.6-1.1c0-0.7-0.8-0.9-1.7-1.1
			c-1-0.2-2.1-0.4-2.1-1.5c0-1.2,1.2-1.5,2.1-1.5c0.8,0,1.6,0.2,2,1L197,70.5z"/>
		<polygon class="st2" points="186.1,74.8 182.2,74.8 182.2,69.3 186,69.3 186,69.8 182.7,69.8 182.7,71.8 185.9,71.8 185.9,72.3 
			182.7,72.3 182.7,74.3 186.1,74.3 		"/>
	</g>
	<g id="icon_1_" class="st1">
		<g>
			<path class="st3" d="M54.4,17.2c0,2.2-1.8,4-4,4s-4-1.8-4-4s1.8-4,4-4S54.4,15,54.4,17.2"/>
			<path class="st3" d="M25.9,17.2c0,2.2-1.8,4-4,4s-4-1.8-4-4s1.8-4,4-4S25.9,15,25.9,17.2"/>
			<path class="st3" d="M36.2,39l16.6-28.7H19.6L36.2,39z M14.5,7.3h43.4L36.2,44.9L14.5,7.3z"/>
			<polygon class="st3" points="2,15.9 21.5,15.9 22.5,18.7 6.8,18.7 36.2,69.7 65.6,18.7 49.2,18.7 50.7,15.9 70.4,15.9 36.2,75.1 
							"/>
		</g>
		<polygon class="st2" points="28.7,15.9 43.7,15.9 36.2,28.8 		"/>
	</g>
	<g id="vertex_1_" class="st1">
		<polygon id="v-logo_1_" class="st3" points="83.7,57.1 73.9,29.2 70.4,29.2 81.3,60.1 86.1,60.1 96.9,29.2 93.4,29.2 		"/>
		<g id="e-logo_1_">
			<path class="st3" d="M119.9,38.6v5.1h-16.7v-5.1v-0.1c-0.1-4.5,4.1-6.6,8.3-6.6C115.7,31.9,119.8,34,119.9,38.6L119.9,38.6
				L119.9,38.6z M111.6,28.6c-5.8,0-11.7,3.3-11.7,10v12.3c0,6.7,5.9,10,11.7,10c4.5,0,9-2,10.9-6l-3-1.5c-1.3,2.8-4.6,4.1-7.9,4.1
				c-4.2,0-8.4-2.1-8.3-6.7v-4.3h20v-2.9v-5.1C123.3,31.9,117.4,28.6,111.6,28.6"/>
			<path class="st3" d="M178.9,38.6v5.1h-16.7v-5.1v-0.1c-0.1-4.5,4.1-6.6,8.3-6.6S178.8,34,178.9,38.6L178.9,38.6L178.9,38.6z
				 M170.5,28.6c-5.8,0-11.7,3.3-11.7,10v12.3c0,6.7,5.9,10,11.7,10c4.5,0,9-2,10.9-6l-3-1.5c-1.3,2.8-4.6,4.1-7.9,4.1
				c-4.2,0-8.4-2.1-8.3-6.7v-4.3h20v-2.9v-5.1C182.2,31.9,176.3,28.6,170.5,28.6"/>
		</g>
		<polygon id="x-logo_1_" class="st3" points="209.3,29.2 205.3,29.2 196.7,42.3 188.1,29.2 184.1,29.2 194.7,44.7 184.1,60.1 
			188.1,60.1 196.7,47.1 205.3,60.1 209.3,60.1 198.7,44.7 		"/>
		<g id="rt-logo_1_">
			<path class="st3" d="M128.3,38.9v21.2h3.3V38.9c0-3.6,2.6-5.7,5.7-6.4c0.5-0.1,1-0.2,1.4-0.2V29c-0.6,0-1.2,0.1-1.8,0.2
				C132.1,30.2,128.3,33.6,128.3,38.9"/>
			<path class="st3" d="M146.2,50.2V31.9h6.1v-3.3h-6.1v-5.9h-3.3v27.5c0,5.4,3.9,8.8,8.6,9.7c0.6,0.1,1.2,0.2,1.8,0.2v-3.3
				c-0.5,0-0.9-0.1-1.4-0.2C148.8,55.9,146.2,53.8,146.2,50.2"/>
		</g>
		<g id="R_1_">
			<path class="st3" d="M216.7,32.3c1.3,0,1.3,1.8,0,1.8h-1.5v-1.8H216.7z M217.1,34.8c2-0.3,1.8-3.2-0.4-3.2h-2.3v5.1h0.8v-1.8h1
				l1.5,1.8h0.8v-0.2L217.1,34.8z M216.2,38.3c2.5,0,4-1.8,4-4.1s-1.4-4.1-4-4.1c-2.5,0-4,1.8-4,4.1
				C212.3,36.5,213.7,38.3,216.2,38.3 M221.1,34.2c0,2.6-1.7,4.9-4.8,4.9s-4.8-2.2-4.8-4.9c0-2.6,1.7-4.9,4.8-4.9
				C219.3,29.3,221.1,31.5,221.1,34.2"/>
		</g>
	</g>
</g>
<g id="logo-dark" class="st0">
	<g id="slogan" class="st1">
		<path class="st4" d="M86.6,72.6c-0.6,0.6-1.4,0.9-2.2,0.9c-2.1,0-3.1-1.4-3.1-3.1c0-1.6,1-3.1,3.1-3.1c0.8,0,1.6,0.3,2.1,0.9
			l-0.4,0.4c-0.5-0.5-1.1-0.7-1.8-0.7c-1.7,0-2.5,1.2-2.5,2.6s0.9,2.5,2.5,2.5c0.6,0,1.3-0.3,1.8-0.7L86.6,72.6z"/>
		<path class="st4" d="M90.9,73c1.6,0,2.4-1.2,2.4-2.5s-0.8-2.6-2.4-2.6s-2.5,1.1-2.4,2.6C88.5,71.8,89.3,73,90.9,73 M94,70.5
			c0,1.6-1,3.1-3,3.1s-3.1-1.5-3.1-3.1c0-1.7,1.1-3.1,3.1-3.1C93,67.3,94,68.8,94,70.5"/>
		<polygon class="st4" points="100.2,72.3 100.2,70.3 100.2,67.4 100.8,67.4 100.8,73.4 100.4,73.4 96.5,68.6 96.5,70.4 96.5,73.4 
			95.9,73.4 95.9,67.4 96.3,67.4 		"/>
		<polygon class="st4" points="107.3,72.3 107.3,70.3 107.3,67.4 107.9,67.4 107.9,73.4 107.6,73.4 103.7,68.6 103.7,70.4 
			103.7,73.4 103.1,73.4 103.1,67.4 103.5,67.4 		"/>
		<path class="st4" d="M121.4,72.6c-0.6,0.6-1.4,0.9-2.2,0.9c-2.1,0-3.1-1.4-3.1-3.1c0-1.6,1-3.1,3.1-3.1c0.8,0,1.6,0.3,2.1,0.9
			l-0.4,0.4c-0.5-0.5-1.1-0.7-1.8-0.7c-1.7,0-2.5,1.2-2.5,2.6s0.9,2.5,2.5,2.5c0.6,0,1.3-0.3,1.8-0.7L121.4,72.6z"/>
		<polygon class="st4" points="114.5,73.4 110.2,73.4 110.2,67.4 114.5,67.4 114.5,68 110.8,68 110.8,70.2 114.3,70.2 114.3,70.7 
			110.8,70.7 110.8,72.9 114.5,72.9 		"/>
		<polygon class="st4" points="124.6,68 122.5,68 122.5,67.4 127.3,67.4 127.3,68 125.2,68 125.2,73.4 124.6,73.4 		"/>
		<path class="st4" d="M139.9,73c1.6,0,2.4-1.2,2.4-2.5s-0.8-2.6-2.4-2.6c-1.6,0-2.5,1.1-2.4,2.6C137.4,71.8,138.2,73,139.9,73
			 M142.9,70.5c0,1.6-1,3.1-3,3.1s-3.1-1.5-3.1-3.1c0-1.7,1.1-3.1,3.1-3.1C141.9,67.3,142.9,68.8,142.9,70.5"/>
		<path class="st4" d="M149.6,67.4v3.7c0,1.6-1.1,2.4-2.4,2.4c-1.3,0-2.4-0.8-2.4-2.4v-3.7h0.6v3.7c0,1.1,0.8,1.8,1.8,1.8
			c0.9,0,1.8-0.6,1.8-1.8v-3.7H149.6z"/>
		<path class="st4" d="M152.4,68v2.7h2.1c1,0,1.4-0.6,1.4-1.3c0-0.8-0.5-1.3-1.4-1.3L152.4,68L152.4,68z M156.7,73.4H156l-2-2.2
			h-1.6v2.2h-0.6v-6h2.7c1.3,0,2,0.9,2,1.9c0,0.9-0.5,1.8-1.8,1.8L156.7,73.4z"/>
		<path class="st4" d="M162,72.9h2c0.7,0,1.6-0.2,1.6-1.1c0-0.8-0.8-1.2-1.5-1.2h-2v2.3C162.1,72.9,162,72.9,162,72.9z M162,70.1h2
			c0.7,0,1.4-0.3,1.4-1c0-0.8-0.7-1.1-1.4-1.1h-2V70.1z M164,67.4c1.1,0,2,0.5,2,1.7c0,0.6-0.4,1.1-0.9,1.3c0.7,0.2,1.1,0.9,1.1,1.5
			c0,1.2-1.1,1.6-2.2,1.6h-2.6v-6L164,67.4L164,67.4z"/>
		<path class="st4" d="M172.8,67.4v3.7c0,1.6-1.1,2.4-2.4,2.4c-1.3,0-2.4-0.8-2.4-2.4v-3.7h0.6v3.7c0,1.1,0.8,1.8,1.8,1.8
			c0.9,0,1.8-0.6,1.8-1.8v-3.7H172.8z"/>
		<path class="st4" d="M178.8,68.7c-0.4-0.6-1.1-0.8-1.7-0.8c-0.7,0-1.7,0.2-1.7,1.1c0,0.7,0.8,0.9,1.7,1.1c1.2,0.2,2.4,0.5,2.4,1.8
			c0,1.4-1.3,1.7-2.4,1.7c-1,0-2-0.4-2.5-1.3l0.5-0.3c0.4,0.8,1.3,1,2,1s1.8-0.2,1.8-1.2c0-0.8-0.9-1-1.8-1.2
			c-1.1-0.2-2.3-0.4-2.3-1.6c0-1.3,1.3-1.7,2.3-1.7c0.8,0,1.7,0.2,2.2,1L178.8,68.7z"/>
		<polygon class="st4" points="133.3,70.4 135.2,67.4 135.9,67.4 135.9,67.4 133.6,71 133.6,73.4 133,73.4 133,71 130.7,67.4 
			130.7,67.4 131.4,67.4 		"/>
		<rect x="181.4" y="67.4" class="st4" width="0.6" height="6"/>
		<polygon class="st4" points="188.6,72.3 188.6,70.3 188.6,67.4 189.2,67.4 189.2,73.4 188.8,73.4 184.9,68.6 184.9,70.4 
			184.9,73.4 184.3,73.4 184.3,67.4 184.7,67.4 		"/>
		<path class="st4" d="M201.4,68.7c-0.4-0.6-1.1-0.8-1.7-0.8c-0.7,0-1.7,0.2-1.7,1.1c0,0.7,0.8,0.9,1.7,1.1c1.2,0.2,2.4,0.5,2.4,1.8
			c0,1.4-1.3,1.7-2.4,1.7c-1,0-2-0.4-2.5-1.3l0.5-0.3c0.4,0.8,1.3,1,2,1s1.8-0.2,1.8-1.2c0-0.8-0.9-1-1.8-1.2
			c-1.1-0.2-2.3-0.4-2.3-1.6c0-1.3,1.3-1.7,2.3-1.7c0.8,0,1.7,0.2,2.2,1L201.4,68.7z"/>
		<path class="st4" d="M207.8,68.7c-0.4-0.6-1.1-0.8-1.7-0.8c-0.7,0-1.7,0.2-1.7,1.1c0,0.7,0.8,0.9,1.7,1.1c1.2,0.2,2.4,0.5,2.4,1.8
			c0,1.4-1.3,1.7-2.4,1.7c-1,0-2-0.4-2.5-1.3l0.5-0.3c0.4,0.8,1.3,1,2,1s1.8-0.2,1.8-1.2c0-0.8-0.9-1-1.8-1.2
			c-1.1-0.2-2.3-0.4-2.3-1.6c0-1.3,1.3-1.7,2.3-1.7c0.8,0,1.7,0.2,2.2,1L207.8,68.7z"/>
		<polygon class="st4" points="195.8,73.4 191.5,73.4 191.5,67.4 195.7,67.4 195.7,68 192.1,68 192.1,70.2 195.6,70.2 195.6,70.7 
			192.1,70.7 192.1,72.9 195.8,72.9 		"/>
	</g>
	<g id="icon" class="st1">
		<g>
			<path class="st5" d="M54.6,15.7c0,2.2-1.8,4-4,4s-4-1.8-4-4s1.8-4,4-4C52.8,11.8,54.6,13.5,54.6,15.7"/>
			<path class="st5" d="M26.2,15.7c0,2.2-1.8,4-4,4s-4-1.8-4-4s1.8-4,4-4S26.2,13.5,26.2,15.7"/>
			<path class="st5" d="M36.5,37.5L53,8.8H19.9L36.5,37.5z M14.9,5.9h43.2L36.5,43.3L14.9,5.9z"/>
			<polygon class="st5" points="2.4,14.5 21.8,14.5 22.9,17.2 7.2,17.2 36.5,68 65.8,17.2 49.5,17.2 50.9,14.5 70.5,14.5 36.5,73.4 
							"/>
		</g>
		<polygon class="st2" points="29.1,14.5 43.9,14.5 36.5,27.3 		"/>
	</g>
	<g id="vertex" class="st1">
		<polygon id="v-logo" class="st5" points="83.8,55.5 74.1,27.7 70.6,27.7 81.4,58.5 86.2,58.5 97,27.7 93.5,27.7 		"/>
		<g id="e-logo">
			<path class="st5" d="M119.9,37v5h-16.6v-5v-0.1c-0.1-4.5,4.1-6.5,8.3-6.5C115.8,30.4,119.9,32.5,119.9,37
				C119.9,36.9,119.9,37,119.9,37z M111.6,27.1c-5.8,0-11.7,3.3-11.7,10v12.2c0,6.7,5.9,10,11.7,10c4.5,0,9-2,10.8-5.9l-3-1.5
				c-1.2,2.8-4.6,4.1-7.8,4.1c-4.2,0-8.4-2.1-8.3-6.7V45h20v-2.9v-5C123.2,30.3,117.3,27.1,111.6,27.1"/>
			<path class="st5" d="M178.6,37v5H162v-5v-0.1c-0.1-4.5,4.1-6.5,8.3-6.5S178.6,32.5,178.6,37L178.6,37z M170.3,27.1
				c-5.8,0-11.7,3.3-11.7,10v12.2c0,6.7,5.9,10,11.7,10c4.5,0,9-2,10.8-5.9l-3-1.5c-1.2,2.8-4.6,4.1-7.8,4.1c-4.2,0-8.4-2.1-8.3-6.7
				V45h20v-2.9v-5C181.9,30.3,176,27.1,170.3,27.1"/>
		</g>
		<polygon id="x-logo" class="st5" points="208.9,27.7 204.9,27.7 196.4,40.7 187.9,27.7 183.8,27.7 194.4,43.1 183.8,58.5 
			187.9,58.5 196.4,45.5 204.9,58.5 208.9,58.5 198.4,43.1 		"/>
		<g id="rt-logo">
			<path class="st5" d="M128.2,37.4v21.1h3.3V37.4c0-3.6,2.6-5.7,5.7-6.4c0.5-0.1,0.9-0.2,1.4-0.2v-3.3c-0.6,0-1.2,0.1-1.8,0.2
				C132.1,28.7,128.2,32.1,128.2,37.4"/>
			<path class="st5" d="M146.1,48.6V30.4h6v-3.3h-6v-5.9h-3.3v27.4c0,5.3,3.9,8.7,8.6,9.7c0.6,0.1,1.2,0.2,1.8,0.2v-3.3
				c-0.5,0-0.9-0.1-1.4-0.2C148.7,54.3,146.1,52.2,146.1,48.6"/>
		</g>
		<g id="R">
			<path class="st5" d="M216.3,30.8c1.3,0,1.3,1.8,0,1.8h-1.5v-1.8H216.3z M216.7,33.2c2-0.3,1.8-3.2-0.4-3.2H214v5h0.8v-1.8h1
				l1.5,1.8h0.8l0,0L216.7,33.2z M215.8,36.7c2.5,0,4-1.8,4-4.1s-1.4-4.1-4-4.1c-2.5,0-3.9,1.8-4,4.1
				C211.9,34.9,213.3,36.7,215.8,36.7 M220.6,32.6c0,2.6-1.7,4.9-4.8,4.9s-4.8-2.2-4.8-4.9c0-2.6,1.7-4.9,4.8-4.9
				C218.9,27.8,220.6,30,220.6,32.6"/>
		</g>
	</g>
</g>
<g>
	<g>
		<polygon class="st6" points="33.9,29 38.6,29 24.3,53.8 19.5,53.8 		"/>
		<polygon class="st6" points="29.1,29 26.7,33.1 12.4,33.1 19.5,45.5 17.2,49.6 5.2,29 		"/>
		<polygon class="st6" points="29.1,53.8 31.5,49.6 45.8,49.6 38.6,37.2 41,33.1 53,53.8 		"/>
	</g>
	<g>
		<path class="st6" d="M136.3,53.7h-4.1l-5-10.3H118v10.3h-3.6V28.9h12.1c0,0,4.2-0.1,6.2,0.7c2.6,1.1,3.9,3,4.2,5.8
			c0.4,3.1-0.9,5.7-3.5,7.1c-0.6,0.3-1.1,0.6-1.7,0.7c-0.4,0.1-0.4,0.2-0.2,0.6C132.9,46.9,136.3,53.7,136.3,53.7z M123.9,39.8
			L123.9,39.8c1.8,0,3.6,0,5.4,0c3.5-0.1,4.4-2.6,3.7-5.2c-0.1-0.5-0.4-0.9-0.9-1.2c-0.9-0.7-2-0.9-3.1-0.9c-3.7,0-7.4,0-11.1,0
			c0,2.4,0,4.9,0,7.3C119.9,39.8,121.9,39.8,123.9,39.8z"/>
		<path class="st6" d="M86.2,29h20.5v3.7H89.9v6.5h8.5v3.6h-8.5v7.4c0,0,11.8,0,17.5,0c-0.1,1.2-0.1,2.4,0,3.6c-5,0-21.1,0-21.1,0
			L86.2,29z"/>
		<polygon class="st6" points="218,53.7 213.4,53.7 205.8,43.3 198,53.8 193.4,53.8 203.3,40.5 203.3,40.1 195.3,29 199.7,29 
			205.5,36.8 206.1,36.8 212,29 216.4,29 208.2,40.1 208.2,40.5 		"/>
		<polygon class="st6" points="67.2,49.6 76.4,29 80.4,29 69.3,53.7 65,53.7 54.2,29 58.1,29 		"/>
		<polygon class="st6" points="149.8,32.6 141,32.6 141,29 162.1,29 162.1,32.6 153.4,32.6 153.4,53.7 149.8,53.7 		"/>
		<path class="st6" d="M169.2,29h20.5v3.7h-16.8v6.5h8.5v3.6h-8.5v7.4c0,0,11.8,0,17.5,0c-0.1,1.2-0.1,2.4,0,3.6c-5,0-21.1,0-21.1,0
			L169.2,29z"/>
	</g>
</g>
<g>
	<path class="st7" d="M186.6,67.6c-0.9-1.3-2.7-4-2.7-4v4.8H183v-6.3h0.9l2.6,4l2.7-4h0.8c0,0,0,4.2,0,6.3c-0.3,0-0.5,0-0.8,0
		c0-1.6,0-4.8,0-4.8S187.4,66.3,186.6,67.6z"/>
	<path class="st7" d="M203.3,62.1c0.1,0,2.7,0,3.8,0c0.4,0,0.7,0.1,1.1,0.1c0.9,0.2,1.4,0.8,1.4,1.6c0,0.9-0.4,1.6-1.3,1.9
		c-0.1,0-0.2,0.1-0.4,0.1c0.6,0.9,1.8,2.6,1.8,2.6h-1l-1.8-2.6h-2.8v2.5h-0.8C203.3,68.4,203.3,64.2,203.3,62.1z M204.1,62.9V65
		c0,0,2.2,0,3.2,0c0.3,0,0.7-0.1,1-0.2c0.4-0.1,0.5-0.5,0.5-0.9c0-0.4-0.2-0.7-0.6-0.9c-0.3-0.1-0.6-0.2-0.9-0.2
		C206.4,62.9,204.1,62.9,204.1,62.9z"/>
	<path class="st7" d="M127.3,68.7c-1-0.1-1.8-0.3-2.6-0.9c-1.7-1.3-1.7-3.9,0-5.2c1.5-1.1,3.8-1.1,5.2,0.1c1,0.8,1.4,1.9,1.2,3.1
		c-0.2,1.3-1.1,2.1-2.3,2.5C128.4,68.6,127.8,68.6,127.3,68.7z M124.2,65.2c0,0.9,0.4,1.6,1.2,2.1c1.2,0.7,2.4,0.7,3.6,0.2
		c0.8-0.4,1.3-1,1.4-1.9c0.1-1-0.3-1.8-1.1-2.3c-1.3-0.8-2.6-0.8-3.8,0C124.6,63.7,124.2,64.4,124.2,65.2z"/>
	<path class="st7" d="M196.8,68.7c-1.1-0.1-2.1-0.4-2.9-1.2c-1.4-1.4-1.3-3.7,0.3-4.9c1.5-1.1,3.8-1.1,5.3,0c1,0.8,1.4,1.9,1.2,3.2
		c-0.2,1.3-1.1,2-2.3,2.4C197.8,68.6,197.6,68.7,196.8,68.7z M196.8,67.9c0.6,0,0.8-0.1,1.2-0.2c1-0.3,1.7-0.9,1.8-2
		c0.1-1-0.3-1.9-1.2-2.4c-1.2-0.7-2.5-0.7-3.7,0c-1.6,0.9-1.6,3.1,0,4.1C195.5,67.7,196,67.9,196.8,67.9z"/>
	<path class="st7" d="M144.7,68.4h-0.8v-6.3h0.8l4.4,5v-5h0.8c0,0,0,6.2,0,6.3c-0.3,0-0.7,0-0.7,0l-4.6-5.1L144.7,68.4z"/>
	<path class="st7" d="M217.9,62.9h-4.7v1.9h2.7v0.8h-2.7c0,0,0,1.4,0,2c1.6,0,3.2,0,4.9,0c0,0.3,0,0.6,0,0.8c-1.9,0-3.8,0-5.7,0
		c0-0.1,0-6.3,0-6.3h5.6L217.9,62.9z"/>
	<path class="st7" d="M121.5,63.1c-0.1,0.2-0.3,0.4-0.5,0.7c-0.1-0.1-0.2-0.2-0.4-0.3c-1.1-0.8-2.3-1-3.6-0.7
		c-1.5,0.4-2.2,1.9-1.7,3.3c0.3,0.9,1,1.3,1.9,1.5c1.3,0.3,2.5,0.2,3.6-0.5c0.1-0.1,0.2-0.1,0.3-0.2c0.1,0.2,0.2,0.5,0.3,0.7
		l-0.1,0.2c-0.7,0.5-1.4,0.7-2.2,0.8c-0.9,0.1-1.8,0-2.7-0.3c-1.3-0.6-2.1-1.7-2.1-3c0-1.4,0.7-2.5,2.1-3
		C118.2,61.5,119.9,61.9,121.5,63.1C121.4,63.1,121.5,63.1,121.5,63.1z"/>
	<path class="st7" d="M168.4,63.1c-0.2,0.2-0.3,0.4-0.4,0.6c-0.4-0.3-0.8-0.5-1.2-0.7c-1.1-0.5-2.2-0.5-3.3,0
		c-1.2,0.6-1.7,2-1.2,3.2c0.3,0.8,1,1.2,1.8,1.4c1.3,0.3,2.6,0.2,3.7-0.6c0.1,0,0.2-0.1,0.2-0.1l0.3,0.7c0,0-0.1,0.1-0.2,0.1
		c-0.7,0.5-1.4,0.7-2.2,0.8c-1.1,0.1-2.1,0-3-0.5c-1.1-0.6-1.7-1.5-1.7-2.7c-0.1-1.3,0.5-2.3,1.6-3
		C164.5,61.5,167.1,61.8,168.4,63.1z"/>
	<polygon class="st7" points="173.4,68.4 172.6,68.4 172.6,62.9 170,62.9 170,62.1 176,62.1 176,62.9 173.4,62.9 	"/>
	<path class="st7" d="M158.9,62.9h-4.7v1.9h2.7v0.8h-2.7c0,0,0,1.4,0,2c1.6,0,3.2,0,4.9,0c0,0.3,0,0.6,0,0.8c-1.9,0-3.8,0-5.7,0
		c0-0.1,0-6.3,0-6.3h5.6L158.9,62.9z"/>
	<path class="st7" d="M134.9,68.4h-0.8v-6.3h0.8l4.4,5v-5h0.8c0,0,0,6.2,0,6.3c-0.3,0-0.7,0-0.7,0l-4.6-5.1L134.9,68.4z"/>
</g>
</svg>
