<?xml version="1.0" encoding="utf-8"?>
<!-- Generator: Adobe Illustrator 23.0.3, SVG Export Plug-In . SVG Version: 6.00 Build 0)  -->
<svg version="1.1" id="Layer_1" xmlns="http://www.w3.org/2000/svg" xmlns:xlink="http://www.w3.org/1999/xlink" x="0px" y="0px"
	 viewBox="0 0 512 512" style="enable-background:new 0 0 512 512;" xml:space="preserve">
<style type="text/css">
	.st0{fill:#4A555F;}
	.st1{fill:none;}
	.st2{fill:#DFDFDF;}
	.st3{fill:#A4C639;}
	.st4{fill:#FFFFFF;}
	.st5{fill:#F2F2F2;}
	.st6{fill:#231F20;}
</style>
<g>
	<g>
		<g>
			<g>
				<path class="st0" d="M382.7,10.4C376,3.7,367,0,357.5,0h-203c-19.6,0-35.6,16-35.6,35.6v440.7c0,8.8,3.4,17.6,9.4,24.1
					c6.7,7.3,16.3,11.6,26.3,11.6h203c19.6,0,35.6-16,35.6-35.6V35.6C393.1,26.1,389.4,17.2,382.7,10.4z M385.9,476.4
					c0,15.7-12.8,28.4-28.4,28.4h-203c-7.8,0-15.7-3.5-21-9.2c-4.7-5.2-7.5-12.2-7.5-19.2V35.6c0-15.7,12.8-28.4,28.4-28.4h203
					c7.6,0,14.7,3,20.1,8.3c5.4,5.4,8.3,12.5,8.3,20.1L385.9,476.4L385.9,476.4z"/>
			</g>
		</g>
	</g>
	<g>
		<path class="st1" d="M361.9,35c-0.8-0.9-1.6-1.8-2.5-2.5c-0.9-0.8-2-1.5-3-2c-2.7-1.5-5.8-2.3-9-2.3H305c-0.5,0-0.9,0-1.4,0.1
			c-0.3,0-0.6,0-1,0.1c-0.4,0-0.8,0.1-1.1,0.2c-0.4,0.1-0.8,0.2-1.2,0.3c-0.5,0.1-1,0.3-1.5,0.5c-1,0.3-2,0.8-2.9,1.3
			c-0.5,0.3-0.9,0.5-1.4,0.8s-0.9,0.6-1.3,1c0,0,0,0,0,0c-1,0.8-1.9,1.8-2.7,2.7c-0.8,1-1.5,2-2.1,3.1c-0.2,0.3-0.3,0.6-0.5,0.8
			c-0.2,0.4-0.5,0.7-0.7,1.1c-0.2,0.3-0.4,0.6-0.6,0.8c-0.2,0.3-0.4,0.5-0.6,0.7c-0.3,0.3-0.5,0.6-0.8,0.9c-0.3,0.3-0.5,0.5-0.8,0.8
			c-0.2,0.2-0.5,0.4-0.7,0.6c0,0-0.1,0.1-0.2,0.1c-0.3,0.2-0.5,0.4-0.8,0.6c-0.1,0.1-0.1,0.1-0.2,0.1c-0.4,0.3-0.8,0.5-1.2,0.8
			c-0.4,0.3-0.9,0.5-1.3,0.7c-0.4,0.2-0.8,0.4-1.2,0.5c-0.1,0-0.2,0.1-0.3,0.1c-0.3,0.1-0.7,0.3-1,0.4c-0.3,0.1-0.6,0.2-0.9,0.3
			c-0.4,0.1-0.8,0.2-1.2,0.3c-0.4,0.1-0.8,0.2-1.2,0.2c-0.1,0-0.2,0-0.3,0c-0.4,0.1-0.7,0.1-1.1,0.1c-0.4,0-0.9,0.1-1.3,0.1h-31
			c-0.4,0-0.9,0-1.3-0.1c-0.3,0-0.6,0-0.9-0.1c-0.6,0-1.1-0.1-1.6-0.3c-0.3-0.1-0.7-0.2-1-0.3c-0.3-0.1-0.7-0.2-1-0.3
			c-0.4-0.1-0.9-0.3-1.3-0.5c-0.5-0.2-0.9-0.4-1.3-0.6c-0.9-0.4-1.7-0.9-2.4-1.5c-0.2-0.1-0.3-0.2-0.5-0.3c-0.2-0.2-0.5-0.3-0.7-0.5
			c-0.4-0.4-0.9-0.7-1.3-1.1c-0.1-0.1-0.1-0.1-0.2-0.2c-0.4-0.4-0.8-0.8-1.1-1.2c0,0-0.1-0.1-0.1-0.1c-0.3-0.4-0.7-0.8-0.9-1.2
			c-0.3-0.4-0.5-0.7-0.7-1.1c-0.2-0.3-0.3-0.5-0.5-0.8c-0.2-0.3-0.4-0.6-0.6-1c-0.2-0.3-0.3-0.5-0.5-0.8c-0.3-0.4-0.6-0.8-0.9-1.2
			c-0.5-0.6-0.9-1.1-1.4-1.6c-0.9-0.9-1.9-1.7-2.9-2.4c-0.3-0.2-0.7-0.4-1-0.6c-0.1-0.1-0.2-0.1-0.3-0.2c-0.4-0.2-0.9-0.4-1.3-0.6
			c-0.5-0.2-1-0.4-1.5-0.6c-0.5-0.2-1-0.3-1.5-0.5c-0.4-0.1-0.7-0.2-1.1-0.2c-0.2-0.1-0.5-0.1-0.7-0.2c-0.2,0-0.3,0-0.5,0
			c-0.3-0.1-0.7-0.1-1-0.1c-0.4-0.1-0.9-0.1-1.3-0.1h-42.4c-2,0-3.9,0.3-5.6,0.9l-5.5,2.8c-0.7,0.5-1.3,1-2,1.6
			c-0.1,0.1-0.2,0.2-0.3,0.3c-0.4,0.4-0.9,0.9-1.2,1.3c-0.8,0.9-1.5,2-2,3c-0.3,0.5-0.6,1.1-0.8,1.7c-0.7,1.7-1.2,3.5-1.4,5.4
			c-0.1,0.7-0.1,1.3-0.1,1.9v109.1l0,0v131.2l0,0v132.9c0,2.3,0.4,4.5,1.1,6.5c0,0,0,0,0,0c0.4,1,0.8,2,1.4,2.9
			c0.5,0.9,1.1,1.8,1.8,2.6c0.4,0.5,0.8,0.9,1.2,1.4c1.7,1.7,3.8,3.1,6,4.1c0.6,0.3,1.1,0.5,1.7,0.6c1.8,0.6,3.7,0.9,5.6,0.9h182.7
			c5.9,0,11.2-2.7,14.6-6.9c0.8-0.9,1.4-1.9,2-3c0,0,0,0,0,0c0.5-1,1-2.1,1.4-3.1c0,0,0,0,0,0c0.3-0.7,0.5-1.5,0.6-2.2c0,0,0,0,0,0
			c0.1-0.6,0.2-1.2,0.3-1.8c0-0.6,0.1-1.2,0.1-1.8V156.2c0,0,0,0,0,0V47.1c0-3.2-0.8-6.3-2.3-9C363.4,37,362.7,36,361.9,35z"/>
	</g>
	<g>
		<path class="st1" d="M271.8,457.2h-31.5c-8.7,0-15.7,7-15.7,15.7v1.9c0,8.7,7.1,15.8,15.7,15.8h31.5c8.7,0,15.7-7.1,15.7-15.8
			v-1.9C287.5,464.2,280.5,457.2,271.8,457.2z"/>
	</g>
	<g>
		<g>
			<g>
				<path class="st2" d="M376.1,156.2V35.6c0-10.3-8.4-18.7-18.7-18.7h-203c-10.3,0-18.7,8.4-18.7,18.7v440.8
					c0,10.3,8.4,18.7,18.7,18.7h203c10.3,0,18.7-8.4,18.7-18.7L376.1,156.2L376.1,156.2z M287.5,474.8c0,8.7-7.1,15.8-15.7,15.8
					h-31.5c-8.7,0-15.7-7.1-15.7-15.8v-1.9c0-8.7,7.1-15.7,15.7-15.7h31.5c8.7,0,15.7,7,15.7,15.7V474.8z M366.2,156.2
					c0,0,0,264.1,0,264.2c0,10.3-8.6,18.9-18.9,18.9c0,0-182.7,0-182.7,0c-10.2,0-18.9-8.7-18.9-18.9V287.4V156.2V47.1
					c0-0.7,0-1.3,0.1-1.9c0.4-3.9,2-7.6,4.6-10.5c3.5-4,8.8-6.4,14.1-6.4H207c3.4,0,6.9,1,9.8,2.8c2.9,1.7,5.3,4.3,6.9,7.2
					c2.9,5.4,8.5,9.1,14.5,9.9c0.7,0.1,1.5,0.1,2.2,0.1h31c5.4,0,10.8-2.5,14.4-6.6c0.7-0.8,1.4-1.7,1.9-2.6
					c0.2-0.3,0.3-0.5,0.5-0.8c3-5.4,8.6-9.2,14.7-9.9c0.7-0.1,1.3-0.1,2-0.1c0,0,42.4,0,42.4,0c10.2,0,18.9,8.6,18.9,18.9
					C366.2,47.1,366.2,156.2,366.2,156.2z"/>
			</g>
		</g>
	</g>
	<g>
		<g>
			<rect x="246.4" y="22.5" class="st0" width="19.2" height="7.2"/>
		</g>
	</g>
	<g>
		<g>
			<rect x="251.6" y="22.5" class="st0" width="8.8" height="7.2"/>
		</g>
	</g>
	<g>
		<g>
			<g>
				<path class="st0" d="M271.8,453.6h-31.5c-10.7,0-19.3,8.7-19.3,19.3v1.9c0,10.7,8.7,19.4,19.3,19.4h31.5
					c10.7,0,19.3-8.7,19.3-19.4v-1.9C291.1,462.2,282.4,453.6,271.8,453.6z M283.9,474.8c0,6.7-5.4,12.2-12.1,12.2h-31.5
					c-6.7,0-12.1-5.5-12.1-12.2v-1.9c0-6.7,5.4-12.1,12.1-12.1h31.5c6.7,0,12.1,5.4,12.1,12.1V474.8z"/>
			</g>
		</g>
	</g>
	<g>
		<g>
			<g>
				<path class="st0" d="M183.9,152.7l5,5.2c1.7-1.6,3.4-3.2,5.1-4.6l-4.6-5.5C187.6,149.3,185.7,151,183.9,152.7z M195.3,143.1
					l4.2,5.8c1.9-1.3,3.8-2.6,5.8-3.9l-3.8-6.1C199.4,140.3,197.3,141.7,195.3,143.1z M256.2,123.4c-1.8,0-3.7,0-5.5,0.1l0.4,7.2
					c1.7-0.1,3.4-0.1,5.1-0.1c0.6,0,1.2,0,1.9,0l0.1-7.2C257.5,123.4,256.8,123.4,256.2,123.4z M174,163.8l5.7,4.4
					c1.4-1.8,2.9-3.6,4.4-5.3l-5.4-4.8C177.1,159.9,175.5,161.8,174,163.8z M235.9,125.4l1.4,7c2.3-0.5,4.6-0.8,6.8-1.1l-0.9-7.1
					C240.8,124.5,238.4,124.9,235.9,125.4z M221.6,129.3l2.4,6.8c2.2-0.8,4.4-1.5,6.6-2.1l-1.9-6.9
					C226.3,127.8,223.9,128.5,221.6,129.3z M208,135.3l3.3,6.4c2-1.1,4.1-2.1,6.2-3l-2.9-6.6C212.4,133.1,210.2,134.1,208,135.3z"/>
			</g>
		</g>
	</g>
	<g>
		<g>
			<g>
				<path class="st0" d="M229.8,320.3l-2,6.9c0.9,0.3,1.8,0.5,2.7,0.7c1.5,0.4,3,0.7,4.5,1.1l1.5-7c-1.4-0.3-2.8-0.6-4.2-1
					C231.4,320.8,230.6,320.6,229.8,320.3z M242.4,330.3c2.5,0.3,5,0.6,7.4,0.7l0.5-7.2c-2.3-0.1-4.6-0.4-6.9-0.7L242.4,330.3z
					 M188.8,306.3c1.9,1.6,3.8,3.2,5.8,4.6l4.3-5.8c-1.9-1.4-3.7-2.8-5.4-4.3L188.8,306.3z M213.8,322.2c2.3,1,4.6,1.9,6.9,2.8
					l2.4-6.8c-2.2-0.8-4.3-1.7-6.4-2.6L213.8,322.2z M257.2,324.1l0.1,7.2c2.5,0,5-0.1,7.4-0.3l-0.6-7.2
					C261.8,323.9,259.5,324,257.2,324.1z M200.7,315.2c2.1,1.3,4.3,2.6,6.4,3.7l3.4-6.3c-2-1.1-4-2.3-6-3.5L200.7,315.2z
					 M297.3,314.9l3.1,6.5c2.2-1.1,4.5-2.2,6.6-3.4l-3.5-6.3C301.5,312.8,299.4,313.9,297.3,314.9z M334.4,284.4
					c-1.4,1.9-2.8,3.7-4.3,5.4l5.5,4.6c1.6-1.9,3.1-3.9,4.6-5.8L334.4,284.4z M320.4,299.7l4.8,5.4c1.8-1.6,3.7-3.4,5.4-5.1l-5.1-5
					C323.8,296.6,322.1,298.2,320.4,299.7z M309.4,308.1l4,6c2.1-1.4,4.1-2.8,6.1-4.3l-4.4-5.7C313.3,305.5,311.4,306.8,309.4,308.1
					z M270.9,322.9l1.1,7.1c2.4-0.4,4.9-0.8,7.3-1.4l-1.6-7C275.5,322.2,273.2,322.6,270.9,322.9z M284.4,319.9l2.1,6.9
					c2.4-0.7,4.7-1.5,7-2.4l-2.6-6.7C288.8,318.4,286.6,319.2,284.4,319.9z"/>
			</g>
		</g>
	</g>
	<g>
		<g>
			<g>
				<path class="st0" d="M347.3,24.6H305c-0.8,0-1.6,0.1-2.3,0.2c-7.3,0.8-14,5.2-17.5,11.7c-0.1,0.2-0.2,0.3-0.3,0.5l-0.1,0.2
					c-0.4,0.7-1,1.4-1.5,2.1c-2.9,3.4-7.3,5.4-11.7,5.4h-31c-0.6,0-1.2,0-1.8-0.1c-4.9-0.6-9.5-3.8-11.8-8c-1.9-3.5-4.8-6.5-8.2-8.6
					c-3.5-2.1-7.6-3.3-11.7-3.3h-42.4c-6.3,0-12.6,2.9-16.8,7.6c-3.1,3.5-5,7.9-5.5,12.5c-0.1,0.8-0.1,1.6-0.1,2.4v373.3
					c0,12.2,10.3,22.5,22.5,22.5h182.7c12.2,0,22.5-10.3,22.5-22.5V47.1C369.8,34.9,359.5,24.6,347.3,24.6z M362.6,420.4
					c0,8.3-7,15.3-15.3,15.3H164.6c-8.3,0-15.3-7-15.3-15.3V47.1c0-0.5,0-1,0.1-1.6c0.3-3.2,1.7-6.2,3.8-8.5
					c2.9-3.2,7.3-5.2,11.5-5.2H207c2.7,0,5.6,0.8,8,2.2c2.3,1.4,4.3,3.5,5.6,5.9c3.4,6.3,10,10.8,17.2,11.7c0.9,0.1,1.8,0.2,2.7,0.2
					h31c6.4,0,12.8-2.9,17.1-7.8c0.8-1,1.6-2,2.2-3c0.2-0.3,0.4-0.7,0.6-1c2.4-4.4,7-7.5,11.9-8c0.5-0.1,1.1-0.1,1.6-0.1h42.4
					c8.3,0,15.3,7,15.3,15.3L362.6,420.4L362.6,420.4z"/>
			</g>
		</g>
	</g>
</g>
<g>
	<g>
		<g>
			<path class="st3" d="M220.9,189c19.6,0,35.5,15.9,35.5,35.5S240.5,260,220.9,260s-35.5-15.9-35.5-35.5S201.3,189,220.9,189z"/>
		</g>
	</g>
	<g>
		<g>
			<path class="st4" d="M203.8,216.3c-1.6,0-2.9,1.3-2.9,2.9v12c0,1.6,1.3,2.9,2.9,2.9c1.7,0,2.9-1.3,2.9-2.9v-12.1
				C206.8,217.5,205.5,216.3,203.8,216.3 M227.3,205.4l2-3.7c0.1-0.2,0-0.4-0.1-0.6c-0.2-0.1-0.4,0-0.6,0.1l-2.1,3.7
				c-1.8-0.8-3.7-1.2-5.7-1.2c-2,0-4,0.4-5.7,1.2l-2.1-3.6c-0.1-0.2-0.3-0.2-0.6-0.2c-0.2,0.1-0.2,0.3-0.1,0.6l2,3.7
				c-4,2-6.7,5.9-6.7,10.3H234C234,211.4,231.3,207.5,227.3,205.4 M214.9,211.1c-0.6,0-1.1-0.4-1.1-1.1c0-0.6,0.4-1.1,1.1-1.1
				c0.6,0,1.1,0.4,1.1,1.1C216,210.6,215.6,211.1,214.9,211.1 M226.9,211.1c-0.6,0-1.1-0.4-1.1-1.1c0-0.6,0.4-1.1,1.1-1.1
				c0.6,0,1.1,0.4,1.1,1.1C228,210.6,227.4,211.1,226.9,211.1 M207.9,216.8v18.6c0,1.7,1.4,3.1,3.1,3.1h2.1v6.3
				c0,1.6,1.3,2.9,2.9,2.9c1.7,0,2.9-1.3,2.9-2.9v-6.3h3.9v6.3c0,1.6,1.3,2.9,2.9,2.9c1.7,0,2.9-1.3,2.9-2.9v-6.3h2.1
				c1.7,0,3.1-1.3,3.1-3.1v-18.6L207.9,216.8z M240.9,219.2c0-1.6-1.3-2.9-2.9-2.9c-1.6,0-2.9,1.3-2.9,2.9v12.1
				c0,1.6,1.3,2.9,2.9,2.9c1.6,0,2.9-1.3,2.9-2.9V219.2z"/>
		</g>
	</g>
</g>
<g>
	<g>
		<g>
			<circle class="st5" cx="294.1" cy="224.5" r="35.5"/>
		</g>
	</g>
	<path class="st6" d="M296.3,210.3c-0.6,0.2-1.5,0.4-2.7,0.4c0.1-2.6,0.7-4.8,2-6.6c1.3-1.8,3.4-3.1,6.4-3.8c0,0.1,0.1,0.1,0.1,0.3
		s0.1,0.2,0.1,0.3s0,0.1,0,0.3c0,0.1,0,0.2,0,0.3c0,1.1-0.2,2.2-0.7,3.5c-0.5,1.3-1.3,2.5-2.3,3.5
		C298.1,209.4,297.2,210,296.3,210.3z M307.8,228.3c-1.2-1.7-1.8-3.6-1.8-5.7c0-1.9,0.6-3.7,1.6-5.3c0.6-0.9,1.6-1.8,2.9-3.1
		c-0.9-1.1-1.8-1.9-2.7-2.6c-1.6-1.1-3.4-1.6-5.5-1.6c-1.2,0-2.7,0.3-4.4,0.9c-1.7,0.6-2.9,0.9-3.7,0.9c-0.6,0-1.8-0.3-3.5-0.8
		c-1.8-0.5-3.3-0.8-4.5-0.8c-2.9,0-5.3,1.2-7.2,3.7s-2.9,5.7-2.9,9.6c0,4.1,1.3,8.4,3.8,12.9c2.6,4.4,5.1,6.6,7.7,6.6
		c0.9,0,2-0.3,3.4-0.9c1.3-0.6,2.6-0.9,3.6-0.9c1.1,0,2.4,0.3,3.8,0.9c1.6,0.6,2.8,0.9,3.5,0.9c2.2,0,4.4-1.7,6.6-5
		c1.4-2.1,2.5-4.3,3.1-6.4C310.4,231,309,229.9,307.8,228.3z"/>
</g>
</svg>
