<?xml version="1.0" encoding="utf-8"?>
<!-- Generator: Adobe Illustrator 23.0.3, SVG Export Plug-In . SVG Version: 6.00 Build 0)  -->
<svg version="1.1" id="Layer_1" xmlns="http://www.w3.org/2000/svg" xmlns:xlink="http://www.w3.org/1999/xlink" x="0px" y="0px"
	 viewBox="0 0 256 256" style="enable-background:new 0 0 256 256;" xml:space="preserve">
<style type="text/css">
	.st0{fill:#E0E0E0;}
	.st1{fill:#FFD552;}
	.st2{fill:#4A555F;}
	.st3{fill:#8FCAB0;}
	.st4{fill:#E280A3;}
</style>
<g>
	<g>
		<g>
			<path class="st0" d="M107.4,203.9v51.9H74.7l10.5-78.5l1.1,0.3C98.5,180.3,107.4,191.4,107.4,203.9z"/>
		</g>
		<g>
			<path class="st0" d="M44.8,255.8H8.6v-51.9c0-11.9,10.7-23.5,24.5-26.4l1.1-0.2L44.8,255.8z"/>
		</g>
		<path class="st1" d="M59.6,165.6c-12.4,0-22.5-10.1-22.5-22.5s10.1-22.5,22.5-22.5S82,130.8,82,143.1
			C82,155.5,72,165.6,59.6,165.6z"/>
		<g>
			<g>
				<path class="st2" d="M59.6,172.8c-16.3,0-29.6-13.3-29.6-29.6s13.3-29.6,29.6-29.6s29.6,13.3,29.6,29.6S75.9,172.8,59.6,172.8z
					 M59.6,116.7c-14.6,0-26.5,11.9-26.5,26.5s11.9,26.5,26.5,26.5s26.5-11.9,26.5-26.5S74.2,116.7,59.6,116.7z"/>
			</g>
			<g>
				<path class="st2" d="M114.8,204.7v51h-3.2v-51c0-17-13.4-31-30.2-31.9c-0.6,0-1.2-0.1-1.8-0.1h-43c-17.6,0-32,14.3-32,32v51.1
					H1.4v-51.1c0-19.4,15.8-35.1,35.1-35.1h43.1c0.7,0,1.5,0,2.2,0.1C100.2,170.8,114.8,186.1,114.8,204.7z"/>
			</g>
			<g>
				<path class="st2" d="M48.3,256l-11.1-86.4h9.3l9.7,11.7l-11.7,20.4l6.9,54.3H48.3z M40.8,172.8l3.1,23.7l8.5-14.9l-7.3-8.9
					L40.8,172.8L40.8,172.8z"/>
			</g>
			<g>
				<path class="st2" d="M79.7,169.6h-6.1l-2.7,3.2l-7,8.1l10.7,20.8l-7,54.3h3.1l10.7-83.2l0.4-3.1
					C81.1,169.6,80.4,169.6,79.7,169.6z M75.3,196.1l-7.6-14.8l7.3-8.5h3.3L75.3,196.1z"/>
			</g>
			<g>
				<rect x="58.1" y="187.9" class="st2" width="3.2" height="68.1"/>
			</g>
			<g>
				<polygon class="st2" points="59.7,190.3 53.1,182.5 55.5,180.5 59.7,185.5 64.6,180 66.9,182.1 				"/>
			</g>
		</g>
		<g>
			<rect x="98" y="223.2" class="st2" width="3.2" height="32.6"/>
		</g>
		<g>
			<rect x="16.4" y="223.2" class="st2" width="3.2" height="32.6"/>
		</g>
	</g>
	<g>
		<path class="st2" d="M235.2,133H125.1c-10.7,0-19.3-8.7-19.3-19.3V89.5H65.2L105.8,52V19.3c0-10.7,8.7-19.3,19.3-19.3h110.1
			c10.7,0,19.3,8.7,19.3,19.3v94.3C254.6,124.3,245.9,133,235.2,133z M73.3,86.3H109v27.3c0,8.9,7.2,16.2,16.2,16.2h110.1
			c8.9,0,16.2-7.2,16.2-16.2V19.3c0-8.9-7.2-16.2-16.2-16.2H125.1c-8.9,0-16.2,7.2-16.2,16.2v34.1L73.3,86.3z"/>
	</g>
	<path class="st3" d="M235.2,6.9H125.1c-6.9,0-12.5,5.6-12.5,12.5V55L82.7,82.6h29.9v31c0,6.9,5.6,12.5,12.5,12.5h110.1
		c6.9,0,12.5-5.6,12.5-12.5V19.3C247.7,12.5,242.1,6.9,235.2,6.9z M208.7,84.3c3.8,3.8,3.8,10,0,13.8s-10,3.8-13.8,0
		c-1.3-1.3-2.2-3-2.6-4.7l-14.2,14.2l-14-14c1.5-0.5,2.8-1.3,4-2.4c3.8-3.8,3.8-10,0-13.7c-3.8-3.8-10-3.8-13.8,0
		c-1.1,1.1-2,2.5-2.4,4l-13.8-13.8l14-14c0.4,1.6,1.3,3.1,2.5,4.3c3.8,3.8,10,3.8,13.8,0s3.8-10,0-13.8c-1.3-1.3-2.7-2.1-4.3-2.5
		l14-14l14,14c0.4-1.6,1.3-3.1,2.5-4.4c3.8-3.8,10-3.8,13.8,0s3.8,10,0,13.8c-1.3,1.3-2.8,2.1-4.4,2.5l14.1,14.1l-14.1,14
		C205.7,82.1,207.3,83,208.7,84.3z"/>
	<g>
		<path class="st2" d="M178.2,109.8l-16.9-16.9l2.5-0.8c1.2-0.4,2.4-1.1,3.3-2c1.5-1.5,2.4-3.6,2.4-5.8c0-2.2-0.8-4.2-2.4-5.8
			c-1.5-1.5-3.6-2.4-5.8-2.4s-4.2,0.8-5.8,2.4c-0.9,0.9-1.6,2.1-2,3.3l-0.8,2.5l-16.8-16.8l17.1-17l0.7,2.6c0.4,1.4,1.1,2.6,2.1,3.6
			c1.5,1.5,3.6,2.4,5.8,2.4s4.2-0.8,5.8-2.4c3.2-3.2,3.2-8.3,0-11.5c-1-1-2.3-1.7-3.6-2.1l-2.6-0.7l17.1-17.1l13.4,13.4
			c0.5-1,1.2-1.9,2-2.7c2.1-2.1,5-3.3,8-3.3s5.9,1.2,8,3.3s3.3,5,3.3,8s-1.2,5.9-3.3,8c-0.8,0.8-1.7,1.5-2.7,2l13.5,13.5L207,81
			c1.1,0.5,2.1,1.2,2.9,2.1c2.1,2.1,3.3,5,3.3,8s-1.2,5.9-3.3,8s-5,3.3-8,3.3s-5.9-1.2-8-3.3c-0.9-0.9-1.6-1.8-2.1-2.9L178.2,109.8z
			 M166.9,94.1l11.2,11.2l15.1-15.1l0.6,2.8c0.3,1.5,1.1,2.8,2.2,3.9c1.5,1.5,3.6,2.4,5.8,2.4s4.2-0.8,5.8-2.4
			c1.5-1.5,2.4-3.6,2.4-5.8c0-2.2-0.8-4.2-2.4-5.8c-1.1-1.1-2.4-1.8-3.9-2.2l-2.8-0.6l15-15l-15-15l2.7-0.7c1.4-0.4,2.7-1.1,3.7-2.1
			c1.5-1.5,2.4-3.6,2.4-5.8s-0.8-4.2-2.4-5.8c-1.5-1.5-3.6-2.4-5.8-2.4s-4.2,0.8-5.8,2.4c-1,1-1.7,2.3-2.1,3.7l-0.7,2.7l-14.8-14.8
			L167,41c1,0.5,1.8,1.2,2.6,2c4.4,4.4,4.4,11.6,0,16c-2.1,2.1-5,3.3-8,3.3s-5.9-1.2-8-3.3c-0.8-0.8-1.4-1.7-2-2.6l-11.2,11.2
			l11.1,11.1c0.5-0.9,1.1-1.6,1.8-2.4c2.1-2.1,5-3.3,8-3.3s5.9,1.2,8,3.3c2.1,2.1,3.3,5,3.3,8s-1.2,5.9-3.3,8
			C168.6,93,167.8,93.6,166.9,94.1z"/>
	</g>
	<path class="st4" d="M172.4,94.3c5.3-5.9,5.2-15-0.5-20.7c-2.8-2.8-6.6-4.4-10.6-4.4c-3.8,0-7.3,1.4-10.1,3.9l-5.6-5.6l5.7-5.7
		c2.8,2.6,6.4,4.1,10.3,4.1c4,0,7.8-1.6,10.6-4.4c5.7-5.7,5.9-15,0.3-20.9l5.6-5.6l32.5,32.5l-15.4,15.4L178.1,100L172.4,94.3z
		 M201.8,95.6c-1.2,0-2.3-0.5-3.1-1.3c-0.6-0.6-1-1.3-1.2-2.1l-1.6-7l7,1.6c0.8,0.2,1.5,0.6,2.1,1.2c0.8,0.8,1.3,2,1.3,3.1
		s-0.5,2.3-1.3,3.1S203,95.6,201.8,95.6z M197.3,42.9c0.2-0.8,0.6-1.4,1.1-2c0.8-0.8,2-1.3,3.1-1.3s2.3,0.5,3.1,1.3
		c1.7,1.7,1.7,4.6,0,6.3c-0.6,0.6-1.2,0.9-2,1.1l-7.4,1.9L197.3,42.9z"/>
	<g>
		<path class="st0" d="M218.7,254.8l7-54.5c7.2,2.3,12.2,9.1,12.2,16.7v37.8H218.7z"/>
	</g>
	<path class="st1" d="M205.2,187.1c-7.9,0-14.2-6.4-14.2-14.2s6.4-14.2,14.2-14.2c7.9,0,14.2,6.4,14.2,14.2S213.1,187.1,205.2,187.1
		z"/>
	<g>
		<rect x="232.8" y="231.1" class="st2" width="3.2" height="23.7"/>
	</g>
	<g>
		<g>
			<path class="st2" d="M205.2,194.8c-12.1,0-22-9.9-22-22s9.9-22,22-22s22,9.9,22,22C227.2,184.9,217.4,194.8,205.2,194.8z
				 M205.2,154c-10.4,0-18.8,8.5-18.8,18.8c0,10.4,8.5,18.8,18.8,18.8s18.8-8.5,18.8-18.8C224.1,162.4,215.6,154,205.2,154z"/>
		</g>
		<g>
			<path class="st2" d="M196.6,255l-8.2-63.4h7.5l7.4,8.9l-8.6,15l5,39.1L196.6,255z M192.1,194.8l2,15.5l5.4-9.4l-5-6.1H192.1z"/>
		</g>
		<g>
			<path class="st2" d="M219.9,191.6h-4.7l-2.7,3.2l-4.6,5.4l7.9,15.3l-5,39.2l3.1,0.4l7.8-60.2l0.4-3.1
				C221.3,191.7,220.6,191.6,219.9,191.6z M216.4,209.9l-4.8-9.3l5-5.8h1.7L216.4,209.9z"/>
		</g>
		<g>
			<rect x="203.7" y="205.4" class="st2" width="3.2" height="49.4"/>
		</g>
		<g>
			<polygon class="st2" points="205.3,207.8 200.2,201.7 202.6,199.7 205.4,203 208.6,199.4 210.9,201.5 			"/>
		</g>
	</g>
	<g>
		<path class="st2" d="M245.9,217.7v37.2h-3.2v-37.2c0-12-9.3-21.9-21.2-22.8c-0.6-0.1-1.1-0.1-1.7-0.1h-31.4c-8,0-14.9,0-20.8,9.8
			c-1,1.7-2,3.4-2.9,5.1c-1.8,3.3-3.7,6.8-6.1,9.9l-1.2,1.6c-1.7,2.3-4.8,2.9-7.3,1.5l-11.6-6.8c-2.3-1.3-5.1-1.3-7.5,0
			c-2.3,1.4-3.7,3.8-3.7,6.5c0,2.6,1.4,5,3.6,6.4l18.1,11.1c3.4,2,6.5,1.1,11.1-1.4l10.3-5.8v22h-3.2v-16.6l-5.6,3.1
			c-4.5,2.4-9.2,4.4-14.3,1.3l-18.1-11.1c-3.1-1.9-5.1-5.4-5.1-9.1c0-3.9,2-7.3,5.3-9.2c3.3-1.9,7.3-1.9,10.7,0l11.6,6.8
			c1.1,0.6,2.4,0.3,3.1-0.7l1.2-1.6c2.2-3,4-6.2,5.8-9.6c1-1.7,1.9-3.5,3-5.3c6.8-11.3,15.3-11.3,23.5-11.3h31.4
			c0.7,0,1.4,0,2.1,0.1C235.3,192.8,245.9,204,245.9,217.7z"/>
	</g>
	<path class="st0" d="M191.5,254.8l-7-56c-5.6,0-10.5,1.4-13.4,7.3c-3.1,6.4-6.1,11.4-9.4,15.8l-1.2,1.6c-1.8,2.4-4.6,3.7-7.5,3.7
		c-1.6,0-3.2-0.4-4.6-1.2l-11.6-6.8c-0.6-0.4-1.3-0.5-1.8-0.5c-0.9,0-1.6,0.3-1.9,0.5c-0.6,0.3-1.9,1.3-1.9,3.3
		c0,1.3,0.7,2.6,1.8,3.2l18.1,11.1c0.8,0.5,1.8,0.8,2.7,0.8c0.6,0,1.2-0.1,1.8-0.3l0,0l0,0c0.5-0.2,1-0.5,1.5-0.8l17.2-9.9v28.3
		h17.2V254.8z"/>
</g>
</svg>
