<?xml version="1.0" encoding="utf-8"?>
<!-- Generator: Adobe Illustrator 23.0.3, SVG Export Plug-In . SVG Version: 6.00 Build 0)  -->
<svg version="1.1" id="Layer_1" xmlns="http://www.w3.org/2000/svg" xmlns:xlink="http://www.w3.org/1999/xlink" x="0px" y="0px"
	 viewBox="0 0 256 256" style="enable-background:new 0 0 256 256;" xml:space="preserve">
<style type="text/css">
	.st0{fill:#4A555F;}
	.st1{fill:#E0E0E0;}
	.st2{fill:#E280A3;}
	.st3{fill:#8FCAB0;}
</style>
<g>
	<g>
		<path class="st0" d="M215.9,174.6h-53V96.3h16L148,65.2l-30.9,31.2H133v78.3h-12.7v-65.1h-37v65.1H56.6C25.4,174.6,0,149.2,0,118
			s25.4-56.6,56.6-56.6c3.6,0,7.3,0.3,10.8,1c12.8-28.5,41.1-46.9,72.5-46.9c43.6,0,79.2,35.4,79.5,78.9
			c20.7,1.7,36.7,18.9,36.7,39.9C256,156.6,238,174.6,215.9,174.6z M166.1,171.4h49.8c20.3,0,36.9-16.5,36.9-36.9
			c0-19.8-15.5-36-35.2-36.8l-1.5-0.1v-1.5c0-0.2,0-0.4,0-0.5s0-0.3,0-0.4c0-42.1-34.2-76.3-76.3-76.3c-30.5,0-58,18.1-70.1,46.1
			l-0.5,1.2l-1.3-0.3c-3.7-0.8-7.6-1.2-11.4-1.2C27.1,64.7,3.2,88.6,3.2,118s23.9,53.4,53.4,53.4h23.5v-65.1h43.5v65.1h6.3V99.5
			h-20.4L148,60.7l38.5,38.9h-20.4V171.4z"/>
	</g>
	<g>
		<path class="st1" d="M169.6,167.9V103H195l-47-47.4l-46.7,47.2H76.6v65.1h-20c-27.5,0-49.8-22.4-49.8-49.8
			c0-27.5,22.4-49.8,49.8-49.8c3.6,0,7.2,0.4,10.6,1.1l4.1,0.9l1.7-3.9c11.5-26.7,37.8-44,66.8-44c40.1,0,72.8,32.6,72.8,72.8
			c0,0.1,0,0.2,0,0.3c0,0.2,0,0.4,0,0.6v4.9l4.9,0.2c17.9,0.8,31.8,15.4,31.8,33.3c0,18.4-15,33.4-33.4,33.4H169.6z"/>
	</g>
	<g>
		<path class="st0" d="M101.9,240.3l-46.2-46.6h24.4v-87.3h43.5v87.3H148L101.9,240.3z M63.3,196.9l38.6,39l38.6-39h-20v-87.3H83.3
			v87.3H63.3z"/>
	</g>
	<g>
		<polygon class="st2" points="71.7,200.4 86.8,200.4 86.8,113.1 116.9,113.1 116.9,200.4 132,200.4 101.9,230.8 		"/>
	</g>
	<g>
		<path class="st0" d="M129.9,187.6V99.5h-20.4L148,60.7l38.5,38.9h-20.4v88.1L129.9,187.6z M133.1,96.3v88.1h29.8V96.3h16L148,65.2
			l-30.9,31.2L133.1,96.3z"/>
	</g>
	<g>
		<polygon class="st3" points="136.6,92.8 125.6,92.8 148,70.2 170.4,92.8 159.4,92.8 159.4,180.9 136.6,180.9 		"/>
	</g>
</g>
</svg>
