<?xml version="1.0" encoding="utf-8"?>
<!-- Generator: Adobe Illustrator 23.0.3, SVG Export Plug-In . SVG Version: 6.00 Build 0)  -->
<svg version="1.1" id="Layer_1" xmlns="http://www.w3.org/2000/svg" xmlns:xlink="http://www.w3.org/1999/xlink" x="0px" y="0px"
	 viewBox="0 0 512 512" style="enable-background:new 0 0 512 512;" xml:space="preserve">
<style type="text/css">
	.st0{fill:#4A555F;}
	.st1{fill:#E280A3;}
	.st2{fill:#FFD452;}
	.st3{fill:#DFDFDF;}
	.st4{fill:#B5B4B4;}
	.st5{fill:#8FCAB0;}
</style>
<g>
	<g>
		<g>
			<g>
				<path class="st0" d="M223,233.7c-46.9,32.7-44,81.2-43.8,83.3l0.5,6.9l4.9-4.9c18.9-18.9,39.9-20.2,40.1-20.2l3-0.1l0.3-68.4
					L223,233.7z M221.4,292.8c-6.2,0.9-20.9,4.3-35.8,16.7c1-13.5,6.7-43.8,36-66.9L221.4,292.8z"/>
			</g>
		</g>
	</g>
	<g>
		<g>
			<path class="st1" d="M194.7,295.1c7.7-4.2,14.7-6.6,20-7.9l0.1-29.2C203.1,270.8,197.4,284.3,194.7,295.1z"/>
		</g>
	</g>
	<g>
		<g>
			<g>
				<path class="st0" d="M289,233.7l-5-3.5l0.3,65.4v3l3,0.2c0.2,0,21.2,1.3,40.1,20.2l4.9,4.9l0.5-6.9
					C333,315,335.9,266.5,289,233.7z M290.6,292.8l-0.2-50.2c29.3,23.1,35,53.4,36,66.9C311.6,297.1,296.8,293.7,290.6,292.8z"/>
			</g>
		</g>
	</g>
	<g>
		<g>
			<path class="st1" d="M297.2,258.1l0.1,29.2c5.3,1.3,12.3,3.6,19.9,7.8C314.5,284.3,308.8,270.7,297.2,258.1z"/>
		</g>
	</g>
	<g>
		<g>
			<g>
				<path class="st0" d="M263.8,228.3h-16.1l-7,36.3l15,60.3l15-60.3L263.8,228.3z M247.2,264.5l5.7-29.9h5.7l5.7,29.9l-8.6,34.4
					L247.2,264.5z"/>
			</g>
		</g>
	</g>
	<g>
		<g>
			<path class="st2" d="M255.5,306.4L255.5,306.4c-10.1,0-18.2,8.1-18.2,18.1c0,6,1.5,12,4.4,17.3l13.8,25.3l13.8-25.3
				c2.9-5.3,4.4-11.2,4.4-17.2l0,0C273.7,314.5,265.5,306.4,255.5,306.4z"/>
		</g>
	</g>
	<g>
		<g>
			<g>
				<path class="st0" d="M255.5,303.3c-11.7,0-21.3,9.6-21.3,21.3c0,6.5,1.7,13,4.8,18.8l16.6,30.4l16.5-30.4
					c3.1-5.7,4.8-12.2,4.8-18.7l0,0C276.8,312.8,267.3,303.3,255.5,303.3z M270.5,324.6c0,5.5-1.4,10.9-4,15.7l-11,20.2l-11-20.2
					c-2.6-4.8-4-10.3-4-15.8c0-8.3,6.7-15,15.1-15C263.8,309.6,270.5,316.3,270.5,324.6L270.5,324.6L270.5,324.6z"/>
			</g>
		</g>
	</g>
	<g>
		<g>
			<g>
				<path class="st0" d="M426.2,175.1H305l0.2,3.3c0,0.3,0,0.6,0,0.9v0.2c0,0.2,0,0.4,0,0.6v0.5c0.1,2.5,0.1,5,0.1,7.5
					c0,4.2-0.1,8.4-0.3,12.3c-0.1,2.9-0.3,6-0.5,9.8l-0.2,3.4h111.6v209H96.1v-209H209l-0.2-3.4c-0.3-3.7-0.4-6.9-0.5-9.8
					c-0.2-4-0.3-8.1-0.3-12.3c0-2.5,0-5,0.1-7.5l0.1-5.6H85.8c-14.7,0-26.7,12-26.7,26.7V432c0,14.7,12,26.7,26.7,26.7h340.4
					c14.7,0,26.7-12,26.7-26.7V201.8C452.9,187.1,440.9,175.1,426.2,175.1z M446.6,432.1c0,11.2-9.2,20.4-20.4,20.4H85.8
					c-11.2,0-20.4-9.2-20.4-20.4V201.8c0-11.2,9.2-20.4,20.4-20.4h116c-0.1,2.2-0.1,4.5-0.1,6.8c0,4.3,0.1,8.5,0.3,12.5
					c0.1,2.1,0.2,4.3,0.3,6.6H89.8v221.6h332.4V207.3H311.1c0.1-2.4,0.3-4.6,0.3-6.6c0.2-4,0.3-8.2,0.3-12.6c0-2.3,0-4.6-0.1-6.8
					h114.6c11.2,0,20.4,9.2,20.4,20.4L446.6,432.1L446.6,432.1z"/>
			</g>
		</g>
	</g>
	<g>
		<g>
			<path class="st3" d="M426.2,188.1H308.5c0,4.1-0.1,8.2-0.3,12.4h120.7v235.1H83.1V200.5h122c-0.2-4.2-0.3-8.3-0.3-12.4h-119
				c-7.5,0-13.6,6.1-13.6,13.6V432c0,7.5,6.1,13.6,13.6,13.6h340.4c7.5,0,13.6-6.1,13.6-13.6V201.8
				C439.8,194.3,433.7,188.1,426.2,188.1z"/>
		</g>
	</g>
	<g>
		<g>
			<g>
				<path class="st0" d="M17.3,452.5v17.3c0,19.3,15.7,35,35,35h407.4c19.3,0,35-15.7,35-35v-17.3H17.3z M488.4,469.8
					c0,15.8-12.9,28.7-28.7,28.7H52.3c-15.8,0-28.7-12.9-28.7-28.7v-11h464.7L488.4,469.8L488.4,469.8z"/>
			</g>
		</g>
	</g>
	<g>
		<g>
			<path class="st3" d="M286,465.5c-1,2.1-2.4,4-4.1,5.7c-4,4-9.5,6.4-15.6,6.4h-34.2c-8.6,0-16-4.9-19.7-12.1h-182v6.1
				c0,11.1,9,20.1,20.1,20.1h411c11.1,0,20.1-9,20.1-20.1v-6.1H286z"/>
		</g>
	</g>
	<g>
		<g>
			<rect y="498.5" class="st0" width="512" height="6.3"/>
		</g>
	</g>
	<g>
		<g>
			<g>
				<path class="st0" d="M207,452.5v3.1c0,13.9,11.3,25.2,25.2,25.2h34.2c13.9,0,25.2-11.3,25.2-25.2v-3.1H207z M266.3,474.5h-34.2
					c-9.3,0-17.1-6.8-18.6-15.7h71.4C283.4,467.7,275.7,474.5,266.3,474.5z"/>
			</g>
		</g>
	</g>
	<g>
		<g>
			<g>
				<path class="st0" d="M419.3,355.2c-1.7-0.1-3.4-0.2-5.2-0.2c-24.9,0-47.8,13-60.6,34.2c-3.7-1.4-7.5-2.1-11.4-2.1
					c-9.2,0-17.8,3.9-23.9,10.5c-6.1-8.9-16.1-14.2-27.1-14.2c-7.8,0-15.3,2.7-21.2,7.7c-4.3-3.3-9.6-5-15.1-5
					c-5.2,0-10.3,1.7-14.6,4.7c-5.9-4.8-13.2-7.4-20.8-7.4c-11,0-21,5.3-27.1,14.2c-6.1-6.6-14.7-10.5-23.9-10.5
					c-3.9,0-7.8,0.7-11.4,2.1C144.2,368,121.3,355,96.4,355c-1.2,0-2.4,0-3.6,0.1l-3,0.2v73.6h332.4v-73.5L419.3,355.2z
					 M415.9,422.6H96.1v-61.3c0.1,0,0.2,0,0.2,0c23.5,0,45.1,12.8,56.5,33.5l1.4,2.6l2.7-1.3c3.6-1.8,7.5-2.7,11.4-2.7
					c8.7,0,16.8,4.3,21.7,11.5l3,4.5l2.4-4.8c4.6-9.2,13.7-14.9,23.9-14.9c6.9,0,13.5,2.7,18.5,7.5l2.1,2l2.2-2
					c3.5-3.1,8-4.9,12.6-4.9c4.8,0,9.4,1.8,13,5.2l2.2,2.1l2.2-2.2c5-5,11.7-7.8,18.9-7.8c10.2,0,19.3,5.7,23.9,14.9l2.4,4.8l3-4.5
					c4.9-7.2,13-11.5,21.7-11.5c3.9,0,7.8,0.9,11.4,2.7l2.7,1.3l1.4-2.6c11.3-20.6,33-33.5,56.5-33.5c0.6,0,1.2,0,1.8,0L415.9,422.6
					L415.9,422.6z"/>
			</g>
		</g>
	</g>
	<g>
		<g>
			<g>
				<path class="st4" d="M168.4,400.2c-2.9,0-5.7,0.7-8.5,2l-8.5,4.1l-4.5-8.2c-9.1-16.6-25.6-27.5-44-29.6v47.4h86.4l-4.8-7.1
					C180.8,403.4,174.8,400.2,168.4,400.2z M291,396.5c-5.3,0-10.3,2.1-14.1,5.8l-6.8,6.8l-7-6.6c-2.3-2.2-5.3-3.4-8.4-3.4
					c-3.8,0-6.5,1.7-8.1,3.1l-6.9,6.2l-6.6-6.4c-3.7-3.6-8.6-5.6-13.8-5.6c-7.6,0-14.4,4.3-17.9,11.1l-4.1,8.2H313l-4.1-8.2
					C305.5,400.8,298.6,396.5,291,396.5z M363.5,398l-4.5,8.3l-8.5-4.1c-2.7-1.3-5.5-2-8.4-2c-6.5,0-12.5,3.2-16.1,8.5l-4.8,7.1h88
					v-47.5C390,369.9,372.8,381,363.5,398z"/>
			</g>
		</g>
	</g>
	<g>
		<g>
			<rect x="348.5" y="240.2" class="st0" width="6.3" height="83.2"/>
		</g>
	</g>
	<g>
		<g>
			<rect x="364.2" y="301.8" class="st0" width="6.3" height="44.5"/>
		</g>
	</g>
	<g>
		<g>
			<rect x="137.3" y="276.2" class="st0" width="6.3" height="22.3"/>
		</g>
	</g>
	<g>
		<g>
			<rect x="160.8" y="240.5" class="st0" width="6.3" height="108"/>
		</g>
	</g>
	<g>
		<g>
			<g>
				<path class="st0" d="M259.2,10.8l-2.6-3.6l-2.6,3.6c-0.7,1-73.2,104.8-46.4,237.8l1.2,5.7l4.2-4.1c2.7-2.6,5.5-5.2,8.6-7.6
					l-0.3,56.2h34.4l-8.5-34.3l5.7-29.9h5.7l5.8,29.9l-8.5,34.3h34.9l-0.2-56.2c0.8,0.6,1.5,1.2,2.2,1.7l0.5,0.4
					c0.3,0.2,0.5,0.4,0.8,0.7c0.4,0.4,0.9,0.8,1.3,1.2l0.2,0.2c1.4,1.3,2.9,2.7,4.7,4.4l4.1,4.2l1.2-5.8
					C332.8,116.2,260,11.8,259.2,10.8z M300.3,242.8c-0.2-0.2-0.5-0.4-0.7-0.7l-0.2-0.2c-0.5-0.4-0.9-0.8-1.3-1.2
					c-0.3-0.3-0.6-0.5-0.9-0.8l-0.5-0.4c-1.6-1.4-3.5-2.8-5.4-4.2c-0.7-0.5-1.5-1.1-2.2-1.6l-5-3.4l0.3,62.2h-20.5l6.9-27.8l-7-36.3
					h-16.1l-7,36.3l6.9,27.8h-20l0.3-62.2l-5,3.5c-3.6,2.5-7,5.2-10.1,8c-20.6-113.3,31.5-203.9,43.9-223.4
					C269.1,37.9,321.4,128.9,300.3,242.8z"/>
			</g>
		</g>
	</g>
	<g>
		<g>
			<g>
				<path class="st5" d="M234.4,285.7h4.6l-4.5-17.9L234.4,285.7z M256.7,31.5c-16.6,29.3-52.1,104.8-39,197.8c0.5-0.4,1-0.7,1.5-1
					l15.6-10.9l-0.2,43.7l7.6-39.4h27.2l8.1,42.1l-0.2-46.3l15.6,10.8c0.8,0.6,1.6,1.1,2.3,1.7c0.1,0.1,0.2,0.2,0.4,0.3
					C309,136.9,273.3,60.9,256.7,31.5z M256,152c-12.8,0-23.2-10.4-23.2-23.2s10.4-23.2,23.2-23.2c12.8,0,23.2,10.4,23.2,23.2
					S268.8,152,256,152z M272.5,285.7h5.1l-0.1-19.9L272.5,285.7z"/>
			</g>
		</g>
	</g>
	<g>
		<g>
			<g>
				<path class="st0" d="M256,102.4c-14.5,0-26.4,11.8-26.4,26.4s11.8,26.4,26.4,26.4c14.6,0,26.4-11.8,26.4-26.4
					C282.4,114.2,270.5,102.4,256,102.4z M256,148.8c-11.1,0-20.1-9-20.1-20.1s9-20.1,20.1-20.1s20.1,9,20.1,20.1
					S267.1,148.8,256,148.8z"/>
			</g>
		</g>
	</g>
	<g>
		<g>
			<path class="st2" d="M288.8,77.7h-64.1c-1.8,5-3.6,10.3-5.2,15.7H294C292.3,88,290.6,82.7,288.8,77.7z"/>
		</g>
	</g>
	<g>
		<g>
			<path class="st2" d="M307.6,164.8H205.7c-0.4,5.2-0.7,10.4-0.8,15.7h103.4C308.3,175.2,308,170,307.6,164.8z"/>
		</g>
	</g>
	<g>
		<g>
			<g>
				<path class="st0" d="M297,92.6c-1.6-5.3-3.4-10.7-5.3-15.9l-0.8-2.1h-68.6l-0.8,2.1c-1.9,5.2-3.6,10.5-5.3,15.9l-1.2,4.1h83.1
					L297,92.6z M223.6,90.3c1-3.2,2.1-6.3,3.2-9.4h59.7c1.1,3.1,2.2,6.3,3.2,9.4H223.6z"/>
			</g>
		</g>
	</g>
	<g>
		<g>
			<g>
				<path class="st0" d="M311.5,180.5c-0.1-5.1-0.4-10.3-0.8-15.9l-0.2-2.9H202.8l-0.2,2.9c-0.4,5.5-0.7,10.7-0.8,15.9l-0.1,3.2
					h109.9L311.5,180.5z M208.2,177.4c0.1-3.1,0.3-6.2,0.5-9.4h96c0.2,3.2,0.4,6.4,0.5,9.4H208.2z"/>
			</g>
		</g>
	</g>
</g>
</svg>
