<?xml version="1.0" encoding="utf-8"?>
<!-- Generator: Adobe Illustrator 23.0.3, SVG Export Plug-In . SVG Version: 6.00 Build 0)  -->
<svg version="1.1" id="Layer_1" xmlns="http://www.w3.org/2000/svg" xmlns:xlink="http://www.w3.org/1999/xlink" x="0px" y="0px"
	 viewBox="0 0 512 512" style="enable-background:new 0 0 512 512;" xml:space="preserve">
<style type="text/css">
	.st0{fill:#E280A3;}
	.st1{fill:#4A555F;}
	.st2{fill:#DFDFDF;}
	.st3{fill:#FFFFFF;}
	.st4{fill:#FFD452;}
	.st5{fill:#8FCAB0;}
</style>
<g>
	<g>
		<g>
			<path class="st0" d="M78.7,137v113.6h87.2c11.2,0,20.3,9.1,20.3,20.3v29.8h46V137H78.7z"/>
		</g>
	</g>
	<g>
		<g>
			<g>
				<path class="st1" d="M472.7,0H39.5C18.2,0,0.9,17.3,0.9,38.6v343c0,21.3,17.3,38.6,38.6,38.6h8V51.1h419.4v284.3H182.8v84.8
					h289.7c21.3,0,38.6-17.3,38.6-38.6V38.4C511.1,17.2,493.9,0,472.7,0z M504.3,381.6c0,17.5-14.3,31.8-31.8,31.8H189.7v-71.1
					h284.1v-298H40.7v369.1h-1.2c-17.5,0-31.8-14.3-31.8-31.8v-343C7.7,21.1,22,6.8,39.5,6.8h433.2c17.4,0,31.6,14.2,31.6,31.6
					V381.6z"/>
			</g>
		</g>
	</g>
	<g>
		<g>
			<path class="st2" d="M489.8,21.3c-3.7-3.7-8.7-5.9-14.3-5.9h-436c-12.8,0-23.2,10.4-23.2,23.2v343c0,10.2,6.6,18.9,15.8,22v-52.7
				h0V35.7h450.3v315.2H198.2v53.9h274.3c12.8,0,23.2-10.4,23.2-23.2v-346C495.7,30.1,493.4,25,489.8,21.3z"/>
		</g>
	</g>
	<g>
		<g>
			<g>
				<path class="st1" d="M310.2,413.4H206.6l-23.7,57v10.2h155.4L310.2,413.4z M189.7,471.7l21.5-51.5h94.6l22.3,53.5H189.7V471.7z"
					/>
			</g>
		</g>
	</g>
	<g>
		<g>
			<polygon class="st2" points="300,428.8 216.9,428.8 201.7,465.1 315.1,465.1 			"/>
		</g>
	</g>
	<g>
		<g>
			<g>
				<path class="st1" d="M182.8,473.7v14.5c0,0.2,0,0.4,0,0.7c-0.1,2.2-0.6,4.3-1.5,6.2c-2.7,6.1-8.8,10-15.4,10v6.8h237.5v-38.3
					L182.8,473.7L182.8,473.7z M396.6,505.2h-214c2.1-2,3.8-4.5,5-7.2c1.2-2.7,1.9-5.6,2.1-8.5c0-0.4,0-0.8,0-1.2v-7.7h206.9
					L396.6,505.2L396.6,505.2z"/>
			</g>
		</g>
	</g>
	<g>
		<g>
			<path class="st2" d="M186.2,489.2c-0.1,2.6-0.7,5.1-1.8,7.4H388v-7.4H186.2z"/>
		</g>
	</g>
	<g>
		<g>
			<rect x="165.9" y="505.2" class="st1" width="341.8" height="6.8"/>
		</g>
	</g>
	<g>
		<g>
			<circle class="st3" cx="258.8" cy="378.3" r="19"/>
		</g>
	</g>
	<g>
		<g>
			<g>
				<path class="st1" d="M258.8,355.9c-12.3,0-22.4,10-22.4,22.4s10,22.4,22.4,22.4c12.3,0,22.4-10,22.4-22.4
					S271.1,355.9,258.8,355.9z M258.8,393.9c-8.6,0-15.6-7-15.6-15.6s7-15.6,15.6-15.6c8.6,0,15.6,7,15.6,15.6
					C274.3,386.9,267.4,393.9,258.8,393.9z"/>
			</g>
		</g>
	</g>
	<g>
		<g>
			<g>
				<path class="st1" d="M450,44.3H64.4c-13.1,0-23.7,10.7-23.7,23.7v17.1h433.1V68C473.7,54.9,463.1,44.3,450,44.3z M466.9,78.3
					H47.5V68c0-9.3,7.6-16.9,16.9-16.9H450c9.3,0,16.9,7.6,16.9,16.9L466.9,78.3L466.9,78.3z"/>
			</g>
		</g>
	</g>
	<g>
		<g>
			<g>
				<path class="st1" d="M75.6,52.8c-5.9,0-10.7,4.8-10.7,10.7s4.8,10.7,10.7,10.7c5.9,0,10.7-4.8,10.7-10.7S81.5,52.8,75.6,52.8z
					 M75.6,67.3c-2.1,0-3.8-1.7-3.8-3.8s1.7-3.8,3.8-3.8c2.1,0,3.8,1.7,3.8,3.8C79.4,65.6,77.7,67.3,75.6,67.3z"/>
			</g>
		</g>
	</g>
	<g>
		<g>
			<g>
				<path class="st1" d="M99.9,52.8c-5.9,0-10.7,4.8-10.7,10.7S94,74.1,99.9,74.1c5.9,0,10.7-4.8,10.7-10.7S105.7,52.8,99.9,52.8z
					 M99.9,67.3c-2.1,0-3.8-1.7-3.8-3.8s1.7-3.8,3.8-3.8c2.1,0,3.8,1.7,3.8,3.8S102,67.3,99.9,67.3z"/>
			</g>
		</g>
	</g>
	<g>
		<g>
			<g>
				<path class="st1" d="M124.1,52.8c-5.9,0-10.7,4.8-10.7,10.7s4.8,10.7,10.7,10.7c5.9,0,10.7-4.8,10.7-10.7S130,52.8,124.1,52.8z
					 M124.1,67.3c-2.1,0-3.8-1.7-3.8-3.8s1.7-3.8,3.8-3.8c2.1,0,3.8,1.7,3.8,3.8S126.2,67.3,124.1,67.3z"/>
			</g>
		</g>
	</g>
	<g>
		<g>
			<g>
				<path class="st1" d="M166,247.2H64.4c-13.1,0-23.7,10.6-23.7,23.7v217.4c0,13.1,10.6,23.7,23.7,23.7H166
					c13.1,0,23.7-10.6,23.7-23.7V270.9C189.7,257.8,179,247.2,166,247.2z M182.9,488.3c0,9.3-7.6,16.9-16.9,16.9H64.4
					c-9.3,0-16.9-7.6-16.9-16.9V270.9c0-9.3,7.6-16.9,16.9-16.9H166c9.3,0,16.9,7.6,16.9,16.9L182.9,488.3L182.9,488.3z"/>
			</g>
		</g>
	</g>
	<g>
		<g>
			<g>
				<path class="st2" d="M165.9,262.6H64.4c-4.6,0-8.3,3.7-8.3,8.3v217.4c0,4.6,3.7,8.3,8.3,8.3h101.6c4.6,0,8.3-3.7,8.3-8.3V270.9
					C174.2,266.3,170.5,262.6,165.9,262.6z M112.8,495.7c-7,0-12.8-5.7-12.8-12.8c0-7,5.7-12.8,12.8-12.8s12.7,5.7,12.7,12.8
					C125.6,490,119.9,495.7,112.8,495.7z M171,459.6H60.6V282.4H171V459.6z"/>
			</g>
		</g>
	</g>
	<g>
		<g>
			<rect x="4.3" y="505.2" class="st1" width="60.1" height="6.8"/>
		</g>
	</g>
	<g>
		<g>
			<g>
				<path class="st1" d="M112.8,466.7c-8.9,0-16.2,7.3-16.2,16.2s7.3,16.2,16.2,16.2c8.9,0,16.2-7.3,16.2-16.2
					S121.7,466.7,112.8,466.7z M112.8,492.3c-5.2,0-9.3-4.2-9.3-9.3s4.2-9.3,9.3-9.3c5.2,0,9.3,4.2,9.3,9.3S118,492.3,112.8,492.3z"
					/>
			</g>
		</g>
	</g>
	<g>
		<g>
			<g>
				<path class="st1" d="M269.7,133.5v170.6h162V133.5H269.7z M424.9,297.3H276.5V140.4h148.4L424.9,297.3L424.9,297.3z"/>
			</g>
		</g>
	</g>
	<g>
		<g>
			<rect x="285.2" y="186.4" class="st4" width="131.1" height="102.3"/>
		</g>
	</g>
	<g>
		<g>
			<rect x="94.2" y="150.5" class="st1" width="122.4" height="6.8"/>
		</g>
	</g>
	<g>
		<g>
			<g>
				<path class="st1" d="M119.9,203.9h6.8v-6.8h-6.8V203.9z M147.2,203.9h6.8v-6.8h-6.8V203.9z M215.5,197.1v6.8h6.2v-6.8H215.5z
					 M106.3,203.9h6.8v-6.8h-6.8V203.9z M92.6,203.9h6.8v-6.8h-6.8V203.9z M133.6,203.9h6.8v-6.8h-6.8V203.9z M188.2,203.9h6.8v-6.8
					h-6.8V203.9z M201.8,203.9h6.8v-6.8h-6.8V203.9z M160.9,203.9h6.8v-6.8h-6.8V203.9z M174.5,203.9h6.8v-6.8h-6.8V203.9z"/>
			</g>
		</g>
	</g>
	<g>
		<g>
			<g>
				<path class="st1" d="M133.6,223.1h6.8v-6.8h-6.8V223.1z M147.2,223.1h6.8v-6.8h-6.8V223.1z M106.3,223.1h6.8v-6.8h-6.8V223.1z
					 M92.6,223.1h6.8v-6.8h-6.8V223.1z M119.9,223.1h6.8v-6.8h-6.8V223.1z M160.9,223.1h6.8v-6.8h-6.8V223.1z M201.8,223.1h6.8v-6.8
					h-6.8V223.1z M215.5,216.3v6.8h6.2v-6.8H215.5z M188.2,223.1h6.8v-6.8h-6.8V223.1z M174.5,223.1h6.8v-6.8h-6.8V223.1z"/>
			</g>
		</g>
	</g>
	<g>
		<g>
			<rect x="94.2" y="172.5" class="st1" width="48.2" height="6.8"/>
		</g>
	</g>
	<g>
		<g>
			<g>
				<path class="st1" d="M269.7,133.5v45.8h162v-45.8H269.7z M424.9,172.5H276.5v-32.1h148.4L424.9,172.5L424.9,172.5z"/>
			</g>
		</g>
	</g>
	<g>
		<g>
			<g>
				<path class="st1" d="M334.5,159.9h6.8V153h-6.8V159.9z M320.8,159.9h6.8V153h-6.8V159.9z M307.2,159.9h6.8V153h-6.8V159.9z
					 M293.5,159.9h6.8V153h-6.8V159.9z M348.1,159.9h6.8V153h-6.8V159.9z M389,159.9h6.8V153H389V159.9z M361.7,159.9h6.8V153h-6.8
					V159.9z M402.7,153v6.8h6.8V153H402.7z M375.4,159.9h6.8V153h-6.8V159.9z"/>
			</g>
		</g>
	</g>
	<g>
		<g>
			<rect x="347.3" y="175.9" class="st1" width="6.8" height="124.8"/>
		</g>
	</g>
	<g>
		<g>
			<g>
				<path class="st1" d="M75.3,309.8v75.6h78.6v-75.6H75.3z M147,378.6H82.1v-62H147V378.6z"/>
			</g>
		</g>
	</g>
	<g>
		<g>
			<rect x="90.7" y="341.9" class="st4" width="47.7" height="28"/>
		</g>
	</g>
	<g>
		<g>
			<rect x="78.7" y="327" class="st1" width="71.8" height="6.8"/>
		</g>
	</g>
	<g>
		<g>
			<rect x="111.2" y="330.4" class="st1" width="6.8" height="51.6"/>
		</g>
	</g>
	<g>
		<g>
			<rect x="75.8" y="401.2" class="st5" width="78.3" height="58.4"/>
		</g>
	</g>
	<g>
		<g>
			<g>
				<path class="st1" d="M57.2,279v184.1h117.2V279H57.2z M167.6,456.2H64V285.8h103.6V456.2z"/>
			</g>
		</g>
	</g>
	<g>
		<g>
			<rect x="85" y="411.3" class="st1" width="60.1" height="6.8"/>
		</g>
	</g>
	<g>
		<g>
			<rect x="85" y="425.9" class="st1" width="38" height="6.8"/>
		</g>
	</g>
	<g>
		<g>
			<g>
				<path class="st1" d="M98.7,447.4h6.8v-6.8h-6.8V447.4z M112.3,447.4h6.8v-6.8h-6.8V447.4z M85,447.4h6.8v-6.8H85V447.4z
					 M139.6,440.6v6.8h6.8v-6.8H139.6z M126,447.4h6.8v-6.8H126C126,440.6,126,447.4,126,447.4z"/>
			</g>
		</g>
	</g>
</g>
</svg>
